<svg width="366" height="327" viewBox="0 0 366 327" fill="none" xmlns="http://www.w3.org/2000/svg">
<path d="M275.247 105.62C269.929 105.62 263.634 104.556 259.32 108.343C251.729 115.008 250.753 128.2 252.65 137.382C257.456 160.633 281.927 176.424 304.74 177.22C329.096 178.071 345.463 163.212 348.253 139.379C350.378 121.231 348.182 96.9465 328.334 89.6942C314.92 84.793 300.331 91.9707 290.764 101.537M260.545 165.242C259.569 166.34 258.941 167.808 257.732 168.69L257.712 168.705C248.226 175.627 240.104 181.554 233.775 192.103C220.38 214.427 216.406 243.434 222.885 268.603C226.863 284.059 235.104 297.965 243.394 311.436M326.7 197.094C328.062 194.37 331.465 193.081 334.232 192.375C350.339 188.266 356.241 215.705 358.008 226.587C362.06 251.542 361.099 277.608 361.003 302.815C360.978 309.218 362.283 317.584 356.919 322.054M214.808 215.062C180.256 215.062 146.153 208.72 112.717 200.361M100.466 135.022V246.914M98.0161 242.014C99.6904 242.014 111.643 242.95 111.038 240.835C106.755 225.841 106.4 210.291 106.138 194.599C105.935 182.397 105.367 170.237 105.367 158.027C105.367 150.937 105.467 143.866 104.368 136.838C103.942 134.106 100.575 123.534 103.733 121.955M47.379 125.222H132.954C135.438 125.222 137.76 125.868 140.169 126.492C147.576 128.413 155.201 129.891 162.81 130.757C164.37 130.935 168.255 131.913 168.255 129.578C168.255 125.55 167.429 121.505 167.03 117.508C165.929 106.503 165.927 95.465 165.351 84.4307C164.62 70.4372 164.13 56.3796 162.946 42.4145C162.803 40.7252 163.002 28.1784 161.358 27.3957C158.385 25.98 153.346 25.9709 150.242 25.4447C134.061 22.7021 117.923 19.8097 101.828 16.5968C74.1327 11.0684 46.1599 5.16254 17.7953 5.16254C14.4224 5.16254 9.50584 4.25755 6.17955 5.20792C3.56681 5.95441 4.33073 32.5509 4.27384 34.6556C3.51325 62.7976 4.89887 90.7363 8.99272 118.597C9.18578 119.911 10.2827 135.099 12.7134 135.794C14.6603 136.35 17.7348 135.756 19.6102 135.658C30.1097 135.108 40.5986 134.368 51.0997 133.843C59.6192 133.417 68.2523 132.572 76.7813 132.572M119.251 68.0509C99.0907 68.0509 78.8332 67.4934 58.634 67.674M58.634 67.674C52.7586 67.7265 46.888 67.8416 41.0263 68.0509C41.0131 68.0514 40.9999 68.0522 40.9866 68.0533M58.634 67.674C61.8702 57.753 67.6765 40.6519 67.6154 40.6451C66.0482 40.471 61.53 46.8723 60.7639 47.7234C55.56 53.5056 49.9734 58.9223 44.4747 64.421C43.475 65.4207 42.2952 67.0223 40.9866 68.0533M58.634 67.674C57.506 71.132 56.6903 73.7178 56.5442 74.4032C54.8918 82.1521 54.2282 90.1945 53.9125 98.0884C53.8971 98.4736 47.5411 88.9629 46.7434 86.8357L46.6728 86.6476C44.9271 81.9931 42.4783 75.4642 42.4783 70.5011M40.9866 68.0533C40.3841 68.1047 39.7104 68.8223 39.7104 68.8223C40.1476 68.6474 40.5735 68.3788 40.9866 68.0533Z" stroke="#F8ECD7" stroke-width="8" stroke-linecap="round" stroke-linejoin="round"/>
</svg>
