<svg width="366" height="327" viewBox="0 0 366 327" fill="none" xmlns="http://www.w3.org/2000/svg">
<path d="M89.998 105.62C95.3158 105.62 101.611 104.556 105.924 108.343C113.515 115.008 114.492 128.2 112.594 137.382C107.789 160.633 83.3172 176.424 60.505 177.22C36.1489 178.071 19.7817 163.212 16.9915 139.379C14.867 121.231 17.0624 96.9465 36.9106 89.6942C50.3244 84.793 64.9141 91.9707 74.4802 101.537M104.699 165.242C105.676 166.34 106.304 167.808 107.513 168.69L107.533 168.705C117.019 175.627 125.14 181.554 131.47 192.103C144.864 214.427 148.838 243.434 142.36 268.603C138.381 284.059 130.141 297.965 121.851 311.436M38.5444 197.094C37.1826 194.37 33.7796 193.081 31.0124 192.375C14.9058 188.266 9.00323 215.705 7.23648 226.587C3.18497 251.542 4.14558 277.608 4.24179 302.815C4.26623 309.218 2.96152 317.584 8.32544 322.054M150.436 215.062C184.989 215.062 219.092 208.72 252.527 200.361M264.778 135.022V246.914M267.229 242.014C265.554 242.014 253.602 242.95 254.206 240.835C258.49 225.841 258.845 210.291 259.107 194.599C259.31 182.397 259.878 170.237 259.878 158.027C259.878 150.937 259.778 143.866 260.876 136.838C261.303 134.106 264.67 123.534 261.511 121.955M317.866 125.222H232.291C229.807 125.222 227.484 125.868 225.076 126.492C217.669 128.413 210.044 129.891 202.435 130.757C200.874 130.935 196.99 131.913 196.99 129.578C196.99 125.55 197.815 121.505 198.215 117.508C199.315 106.503 199.317 95.465 199.894 84.4307C200.625 70.4372 201.115 56.3796 202.298 42.4145C202.442 40.7252 202.243 28.1784 203.887 27.3957C206.86 25.98 211.899 25.9709 215.003 25.4447C231.184 22.7021 247.322 19.8097 263.417 16.5968C291.112 11.0684 319.085 5.16254 347.449 5.16254C350.822 5.16254 355.739 4.25755 359.065 5.20792C361.678 5.95441 360.914 32.5509 360.971 34.6556C361.731 62.7976 360.346 90.7363 356.252 118.597C356.059 119.911 354.962 135.099 352.531 135.794C350.584 136.35 347.51 135.756 345.634 135.658C335.135 135.108 324.646 134.368 314.145 133.843C305.625 133.417 296.992 132.572 288.463 132.572M245.994 68.0509C266.154 68.0509 286.411 67.4934 306.611 67.674M306.611 67.674C312.486 67.7265 318.357 67.8416 324.218 68.0509C324.232 68.0514 324.245 68.0522 324.258 68.0533M306.611 67.674C303.374 57.753 297.568 40.6519 297.629 40.6451C299.196 40.471 303.715 46.8723 304.481 47.7234C309.685 53.5056 315.271 58.9223 320.77 64.421C321.77 65.4207 322.949 67.0223 324.258 68.0533M306.611 67.674C307.739 71.132 308.554 73.7178 308.7 74.4032C310.353 82.1521 311.016 90.1945 311.332 98.0884C311.348 98.4736 317.704 88.9629 318.501 86.8357L318.572 86.6476C320.318 81.9931 322.766 75.4642 322.766 70.5011M324.258 68.0533C324.861 68.1047 325.534 68.8223 325.534 68.8223C325.097 68.6474 324.671 68.3788 324.258 68.0533Z" stroke="#F8ECD7" stroke-width="8" stroke-linecap="round" stroke-linejoin="round"/>
</svg>
