<svg width="575" height="238" viewBox="0 0 575 238" fill="none" xmlns="http://www.w3.org/2000/svg">
<path d="M267 129.547H270.047V132.594H267V129.547ZM271.219 129.547H274.266V132.594H271.219V129.547ZM275.438 129.547H278.484V132.594H275.438V129.547ZM300.75 129.547H303.797V132.594H300.75V129.547ZM304.969 129.547H308.016V132.594H304.969V129.547ZM309.188 129.547H312.234V132.594H309.188V129.547ZM267 133.766H270.047V136.812H267V133.766ZM271.219 133.766H274.266V136.812H271.219V133.766ZM275.438 133.766H278.484V136.812H275.438V133.766ZM279.656 133.766H282.703V136.812H279.656V133.766ZM296.531 133.766H299.578V136.812H296.531V133.766ZM300.75 133.766H303.797V136.812H300.75V133.766ZM304.969 133.766H308.016V136.812H304.969V133.766ZM309.188 133.766H312.234V136.812H309.188V133.766ZM267 137.984H270.047V141.031H267V137.984ZM271.219 137.984H274.266V141.031H271.219V137.984ZM275.438 137.984H278.484V141.031H275.438V137.984ZM279.656 137.984H282.703V141.031H279.656V137.984ZM283.875 137.984H286.922V141.031H283.875V137.984ZM292.312 137.984H295.359V141.031H292.312V137.984ZM296.531 137.984H299.578V141.031H296.531V137.984ZM300.75 137.984H303.797V141.031H300.75V137.984ZM304.969 137.984H308.016V141.031H304.969V137.984ZM309.188 137.984H312.234V141.031H309.188V137.984ZM267 142.203H270.047V145.25H267V142.203ZM271.219 142.203H274.266V145.25H271.219V142.203ZM275.438 142.203H278.484V145.25H275.438V142.203ZM279.656 142.203H282.703V145.25H279.656V142.203ZM283.875 142.203H286.922V145.25H283.875V142.203ZM288.094 142.203H291.141V145.25H288.094V142.203ZM292.312 142.203H295.359V145.25H292.312V142.203ZM296.531 142.203H299.578V145.25H296.531V142.203ZM300.75 142.203H303.797V145.25H300.75V142.203ZM304.969 142.203H308.016V145.25H304.969V142.203ZM309.188 142.203H312.234V145.25H309.188V142.203ZM267 146.422H270.047V149.469H267V146.422ZM271.219 146.422H274.266V149.469H271.219V146.422ZM275.438 146.422H278.484V149.469H275.438V146.422ZM279.656 146.422H282.703V149.469H279.656V146.422ZM283.875 146.422H286.922V149.469H283.875V146.422ZM288.094 146.422H291.141V149.469H288.094V146.422ZM292.312 146.422H295.359V149.469H292.312V146.422ZM296.531 146.422H299.578V149.469H296.531V146.422ZM300.75 146.422H303.797V149.469H300.75V146.422ZM304.969 146.422H308.016V149.469H304.969V146.422ZM309.188 146.422H312.234V149.469H309.188V146.422ZM267 150.641H270.047V153.688H267V150.641ZM271.219 150.641H274.266V153.688H271.219V150.641ZM275.438 150.641H278.484V153.688H275.438V150.641ZM283.875 150.641H286.922V153.688H283.875V150.641ZM288.094 150.641H291.141V153.688H288.094V150.641ZM292.312 150.641H295.359V153.688H292.312V150.641ZM300.75 150.641H303.797V153.688H300.75V150.641ZM304.969 150.641H308.016V153.688H304.969V150.641ZM309.188 150.641H312.234V153.688H309.188V150.641ZM267 154.859H270.047V157.906H267V154.859ZM271.219 154.859H274.266V157.906H271.219V154.859ZM275.438 154.859H278.484V157.906H275.438V154.859ZM288.094 154.859H291.141V157.906H288.094V154.859ZM300.75 154.859H303.797V157.906H300.75V154.859ZM304.969 154.859H308.016V157.906H304.969V154.859ZM309.188 154.859H312.234V157.906H309.188V154.859ZM267 159.078H270.047V162.125H267V159.078ZM271.219 159.078H274.266V162.125H271.219V159.078ZM275.438 159.078H278.484V162.125H275.438V159.078ZM300.75 159.078H303.797V162.125H300.75V159.078ZM304.969 159.078H308.016V162.125H304.969V159.078ZM309.188 159.078H312.234V162.125H309.188V159.078ZM267 163.297H270.047V166.344H267V163.297ZM271.219 163.297H274.266V166.344H271.219V163.297ZM275.438 163.297H278.484V166.344H275.438V163.297ZM300.75 163.297H303.797V166.344H300.75V163.297ZM304.969 163.297H308.016V166.344H304.969V163.297ZM309.188 163.297H312.234V166.344H309.188V163.297ZM267 167.516H270.047V170.562H267V167.516ZM271.219 167.516H274.266V170.562H271.219V167.516ZM275.438 167.516H278.484V170.562H275.438V167.516ZM300.75 167.516H303.797V170.562H300.75V167.516ZM304.969 167.516H308.016V170.562H304.969V167.516ZM309.188 167.516H312.234V170.562H309.188V167.516ZM267 171.734H270.047V174.781H267V171.734ZM271.219 171.734H274.266V174.781H271.219V171.734ZM275.438 171.734H278.484V174.781H275.438V171.734ZM300.75 171.734H303.797V174.781H300.75V171.734ZM304.969 171.734H308.016V174.781H304.969V171.734ZM309.188 171.734H312.234V174.781H309.188V171.734ZM267 175.953H270.047V179H267V175.953ZM271.219 175.953H274.266V179H271.219V175.953ZM275.438 175.953H278.484V179H275.438V175.953ZM300.75 175.953H303.797V179H300.75V175.953ZM304.969 175.953H308.016V179H304.969V175.953ZM309.188 175.953H312.234V179H309.188V175.953ZM328.863 129.547H331.91V132.594H328.863V129.547ZM333.082 129.547H336.129V132.594H333.082V129.547ZM337.301 129.547H340.348V132.594H337.301V129.547ZM341.52 129.547H344.566V132.594H341.52V129.547ZM345.738 129.547H348.785V132.594H345.738V129.547ZM349.957 129.547H353.004V132.594H349.957V129.547ZM354.176 129.547H357.223V132.594H354.176V129.547ZM358.395 129.547H361.441V132.594H358.395V129.547ZM362.613 129.547H365.66V132.594H362.613V129.547ZM366.832 129.547H369.879V132.594H366.832V129.547ZM371.051 129.547H374.098V132.594H371.051V129.547ZM328.863 133.766H331.91V136.812H328.863V133.766ZM333.082 133.766H336.129V136.812H333.082V133.766ZM337.301 133.766H340.348V136.812H337.301V133.766ZM341.52 133.766H344.566V136.812H341.52V133.766ZM345.738 133.766H348.785V136.812H345.738V133.766ZM349.957 133.766H353.004V136.812H349.957V133.766ZM354.176 133.766H357.223V136.812H354.176V133.766ZM358.395 133.766H361.441V136.812H358.395V133.766ZM362.613 133.766H365.66V136.812H362.613V133.766ZM366.832 133.766H369.879V136.812H366.832V133.766ZM371.051 133.766H374.098V136.812H371.051V133.766ZM328.863 137.984H331.91V141.031H328.863V137.984ZM333.082 137.984H336.129V141.031H333.082V137.984ZM337.301 137.984H340.348V141.031H337.301V137.984ZM341.52 137.984H344.566V141.031H341.52V137.984ZM345.738 137.984H348.785V141.031H345.738V137.984ZM349.957 137.984H353.004V141.031H349.957V137.984ZM354.176 137.984H357.223V141.031H354.176V137.984ZM358.395 137.984H361.441V141.031H358.395V137.984ZM362.613 137.984H365.66V141.031H362.613V137.984ZM366.832 137.984H369.879V141.031H366.832V137.984ZM371.051 137.984H374.098V141.031H371.051V137.984ZM328.863 142.203H331.91V145.25H328.863V142.203ZM333.082 142.203H336.129V145.25H333.082V142.203ZM337.301 142.203H340.348V145.25H337.301V142.203ZM328.863 146.422H331.91V149.469H328.863V146.422ZM333.082 146.422H336.129V149.469H333.082V146.422ZM337.301 146.422H340.348V149.469H337.301V146.422ZM328.863 150.641H331.91V153.688H328.863V150.641ZM333.082 150.641H336.129V153.688H333.082V150.641ZM337.301 150.641H340.348V153.688H337.301V150.641ZM341.52 150.641H344.566V153.688H341.52V150.641ZM345.738 150.641H348.785V153.688H345.738V150.641ZM349.957 150.641H353.004V153.688H349.957V150.641ZM354.176 150.641H357.223V153.688H354.176V150.641ZM358.395 150.641H361.441V153.688H358.395V150.641ZM362.613 150.641H365.66V153.688H362.613V150.641ZM366.832 150.641H369.879V153.688H366.832V150.641ZM371.051 150.641H374.098V153.688H371.051V150.641ZM328.863 154.859H331.91V157.906H328.863V154.859ZM333.082 154.859H336.129V157.906H333.082V154.859ZM337.301 154.859H340.348V157.906H337.301V154.859ZM341.52 154.859H344.566V157.906H341.52V154.859ZM345.738 154.859H348.785V157.906H345.738V154.859ZM349.957 154.859H353.004V157.906H349.957V154.859ZM354.176 154.859H357.223V157.906H354.176V154.859ZM358.395 154.859H361.441V157.906H358.395V154.859ZM362.613 154.859H365.66V157.906H362.613V154.859ZM366.832 154.859H369.879V157.906H366.832V154.859ZM371.051 154.859H374.098V157.906H371.051V154.859ZM328.863 159.078H331.91V162.125H328.863V159.078ZM333.082 159.078H336.129V162.125H333.082V159.078ZM337.301 159.078H340.348V162.125H337.301V159.078ZM328.863 163.297H331.91V166.344H328.863V163.297ZM333.082 163.297H336.129V166.344H333.082V163.297ZM337.301 163.297H340.348V166.344H337.301V163.297ZM328.863 167.516H331.91V170.562H328.863V167.516ZM333.082 167.516H336.129V170.562H333.082V167.516ZM337.301 167.516H340.348V170.562H337.301V167.516ZM341.52 167.516H344.566V170.562H341.52V167.516ZM345.738 167.516H348.785V170.562H345.738V167.516ZM349.957 167.516H353.004V170.562H349.957V167.516ZM354.176 167.516H357.223V170.562H354.176V167.516ZM358.395 167.516H361.441V170.562H358.395V167.516ZM362.613 167.516H365.66V170.562H362.613V167.516ZM366.832 167.516H369.879V170.562H366.832V167.516ZM371.051 167.516H374.098V170.562H371.051V167.516ZM328.863 171.734H331.91V174.781H328.863V171.734ZM333.082 171.734H336.129V174.781H333.082V171.734ZM337.301 171.734H340.348V174.781H337.301V171.734ZM341.52 171.734H344.566V174.781H341.52V171.734ZM345.738 171.734H348.785V174.781H345.738V171.734ZM349.957 171.734H353.004V174.781H349.957V171.734ZM354.176 171.734H357.223V174.781H354.176V171.734ZM358.395 171.734H361.441V174.781H358.395V171.734ZM362.613 171.734H365.66V174.781H362.613V171.734ZM366.832 171.734H369.879V174.781H366.832V171.734ZM371.051 171.734H374.098V174.781H371.051V171.734ZM328.863 175.953H331.91V179H328.863V175.953ZM333.082 175.953H336.129V179H333.082V175.953ZM337.301 175.953H340.348V179H337.301V175.953ZM341.52 175.953H344.566V179H341.52V175.953ZM345.738 175.953H348.785V179H345.738V175.953ZM349.957 175.953H353.004V179H349.957V175.953ZM354.176 175.953H357.223V179H354.176V175.953ZM358.395 175.953H361.441V179H358.395V175.953ZM362.613 175.953H365.66V179H362.613V175.953ZM366.832 175.953H369.879V179H366.832V175.953ZM371.051 175.953H374.098V179H371.051V175.953ZM390.727 129.547H393.773V132.594H390.727V129.547ZM394.945 129.547H397.992V132.594H394.945V129.547ZM399.164 129.547H402.211V132.594H399.164V129.547ZM403.383 129.547H406.43V132.594H403.383V129.547ZM407.602 129.547H410.648V132.594H407.602V129.547ZM411.82 129.547H414.867V132.594H411.82V129.547ZM416.039 129.547H419.086V132.594H416.039V129.547ZM420.258 129.547H423.305V132.594H420.258V129.547ZM424.477 129.547H427.523V132.594H424.477V129.547ZM390.727 133.766H393.773V136.812H390.727V133.766ZM394.945 133.766H397.992V136.812H394.945V133.766ZM399.164 133.766H402.211V136.812H399.164V133.766ZM403.383 133.766H406.43V136.812H403.383V133.766ZM407.602 133.766H410.648V136.812H407.602V133.766ZM411.82 133.766H414.867V136.812H411.82V133.766ZM416.039 133.766H419.086V136.812H416.039V133.766ZM420.258 133.766H423.305V136.812H420.258V133.766ZM424.477 133.766H427.523V136.812H424.477V133.766ZM428.695 133.766H431.742V136.812H428.695V133.766ZM390.727 137.984H393.773V141.031H390.727V137.984ZM394.945 137.984H397.992V141.031H394.945V137.984ZM399.164 137.984H402.211V141.031H399.164V137.984ZM403.383 137.984H406.43V141.031H403.383V137.984ZM407.602 137.984H410.648V141.031H407.602V137.984ZM411.82 137.984H414.867V141.031H411.82V137.984ZM416.039 137.984H419.086V141.031H416.039V137.984ZM420.258 137.984H423.305V141.031H420.258V137.984ZM424.477 137.984H427.523V141.031H424.477V137.984ZM428.695 137.984H431.742V141.031H428.695V137.984ZM432.914 137.984H435.961V141.031H432.914V137.984ZM390.727 142.203H393.773V145.25H390.727V142.203ZM394.945 142.203H397.992V145.25H394.945V142.203ZM399.164 142.203H402.211V145.25H399.164V142.203ZM424.477 142.203H427.523V145.25H424.477V142.203ZM428.695 142.203H431.742V145.25H428.695V142.203ZM432.914 142.203H435.961V145.25H432.914V142.203ZM390.727 146.422H393.773V149.469H390.727V146.422ZM394.945 146.422H397.992V149.469H394.945V146.422ZM399.164 146.422H402.211V149.469H399.164V146.422ZM424.477 146.422H427.523V149.469H424.477V146.422ZM428.695 146.422H431.742V149.469H428.695V146.422ZM432.914 146.422H435.961V149.469H432.914V146.422ZM390.727 150.641H393.773V153.688H390.727V150.641ZM394.945 150.641H397.992V153.688H394.945V150.641ZM399.164 150.641H402.211V153.688H399.164V150.641ZM424.477 150.641H427.523V153.688H424.477V150.641ZM428.695 150.641H431.742V153.688H428.695V150.641ZM432.914 150.641H435.961V153.688H432.914V150.641ZM390.727 154.859H393.773V157.906H390.727V154.859ZM394.945 154.859H397.992V157.906H394.945V154.859ZM399.164 154.859H402.211V157.906H399.164V154.859ZM424.477 154.859H427.523V157.906H424.477V154.859ZM428.695 154.859H431.742V157.906H428.695V154.859ZM432.914 154.859H435.961V157.906H432.914V154.859ZM390.727 159.078H393.773V162.125H390.727V159.078ZM394.945 159.078H397.992V162.125H394.945V159.078ZM399.164 159.078H402.211V162.125H399.164V159.078ZM424.477 159.078H427.523V162.125H424.477V159.078ZM428.695 159.078H431.742V162.125H428.695V159.078ZM432.914 159.078H435.961V162.125H432.914V159.078ZM390.727 163.297H393.773V166.344H390.727V163.297ZM394.945 163.297H397.992V166.344H394.945V163.297ZM399.164 163.297H402.211V166.344H399.164V163.297ZM424.477 163.297H427.523V166.344H424.477V163.297ZM428.695 163.297H431.742V166.344H428.695V163.297ZM432.914 163.297H435.961V166.344H432.914V163.297ZM390.727 167.516H393.773V170.562H390.727V167.516ZM394.945 167.516H397.992V170.562H394.945V167.516ZM399.164 167.516H402.211V170.562H399.164V167.516ZM403.383 167.516H406.43V170.562H403.383V167.516ZM407.602 167.516H410.648V170.562H407.602V167.516ZM411.82 167.516H414.867V170.562H411.82V167.516ZM416.039 167.516H419.086V170.562H416.039V167.516ZM420.258 167.516H423.305V170.562H420.258V167.516ZM424.477 167.516H427.523V170.562H424.477V167.516ZM428.695 167.516H431.742V170.562H428.695V167.516ZM432.914 167.516H435.961V170.562H432.914V167.516ZM390.727 171.734H393.773V174.781H390.727V171.734ZM394.945 171.734H397.992V174.781H394.945V171.734ZM399.164 171.734H402.211V174.781H399.164V171.734ZM403.383 171.734H406.43V174.781H403.383V171.734ZM407.602 171.734H410.648V174.781H407.602V171.734ZM411.82 171.734H414.867V174.781H411.82V171.734ZM416.039 171.734H419.086V174.781H416.039V171.734ZM420.258 171.734H423.305V174.781H420.258V171.734ZM424.477 171.734H427.523V174.781H424.477V171.734ZM428.695 171.734H431.742V174.781H428.695V171.734ZM390.727 175.953H393.773V179H390.727V175.953ZM394.945 175.953H397.992V179H394.945V175.953ZM399.164 175.953H402.211V179H399.164V175.953ZM403.383 175.953H406.43V179H403.383V175.953ZM407.602 175.953H410.648V179H407.602V175.953ZM411.82 175.953H414.867V179H411.82V175.953ZM416.039 175.953H419.086V179H416.039V175.953ZM420.258 175.953H423.305V179H420.258V175.953ZM424.477 175.953H427.523V179H424.477V175.953ZM452.59 129.547H455.637V132.594H452.59V129.547ZM456.809 129.547H459.855V132.594H456.809V129.547ZM461.027 129.547H464.074V132.594H461.027V129.547ZM465.246 129.547H468.293V132.594H465.246V129.547ZM469.465 129.547H472.512V132.594H469.465V129.547ZM473.684 129.547H476.73V132.594H473.684V129.547ZM477.902 129.547H480.949V132.594H477.902V129.547ZM482.121 129.547H485.168V132.594H482.121V129.547ZM486.34 129.547H489.387V132.594H486.34V129.547ZM490.559 129.547H493.605V132.594H490.559V129.547ZM494.777 129.547H497.824V132.594H494.777V129.547ZM452.59 133.766H455.637V136.812H452.59V133.766ZM456.809 133.766H459.855V136.812H456.809V133.766ZM461.027 133.766H464.074V136.812H461.027V133.766ZM465.246 133.766H468.293V136.812H465.246V133.766ZM469.465 133.766H472.512V136.812H469.465V133.766ZM473.684 133.766H476.73V136.812H473.684V133.766ZM477.902 133.766H480.949V136.812H477.902V133.766ZM482.121 133.766H485.168V136.812H482.121V133.766ZM486.34 133.766H489.387V136.812H486.34V133.766ZM490.559 133.766H493.605V136.812H490.559V133.766ZM494.777 133.766H497.824V136.812H494.777V133.766ZM452.59 137.984H455.637V141.031H452.59V137.984ZM456.809 137.984H459.855V141.031H456.809V137.984ZM461.027 137.984H464.074V141.031H461.027V137.984ZM465.246 137.984H468.293V141.031H465.246V137.984ZM469.465 137.984H472.512V141.031H469.465V137.984ZM473.684 137.984H476.73V141.031H473.684V137.984ZM477.902 137.984H480.949V141.031H477.902V137.984ZM482.121 137.984H485.168V141.031H482.121V137.984ZM486.34 137.984H489.387V141.031H486.34V137.984ZM490.559 137.984H493.605V141.031H490.559V137.984ZM494.777 137.984H497.824V141.031H494.777V137.984ZM469.465 142.203H472.512V145.25H469.465V142.203ZM473.684 142.203H476.73V145.25H473.684V142.203ZM477.902 142.203H480.949V145.25H477.902V142.203ZM469.465 146.422H472.512V149.469H469.465V146.422ZM473.684 146.422H476.73V149.469H473.684V146.422ZM477.902 146.422H480.949V149.469H477.902V146.422ZM469.465 150.641H472.512V153.688H469.465V150.641ZM473.684 150.641H476.73V153.688H473.684V150.641ZM477.902 150.641H480.949V153.688H477.902V150.641ZM469.465 154.859H472.512V157.906H469.465V154.859ZM473.684 154.859H476.73V157.906H473.684V154.859ZM477.902 154.859H480.949V157.906H477.902V154.859ZM469.465 159.078H472.512V162.125H469.465V159.078ZM473.684 159.078H476.73V162.125H473.684V159.078ZM477.902 159.078H480.949V162.125H477.902V159.078ZM469.465 163.297H472.512V166.344H469.465V163.297ZM473.684 163.297H476.73V166.344H473.684V163.297ZM477.902 163.297H480.949V166.344H477.902V163.297ZM452.59 167.516H455.637V170.562H452.59V167.516ZM456.809 167.516H459.855V170.562H456.809V167.516ZM461.027 167.516H464.074V170.562H461.027V167.516ZM465.246 167.516H468.293V170.562H465.246V167.516ZM469.465 167.516H472.512V170.562H469.465V167.516ZM473.684 167.516H476.73V170.562H473.684V167.516ZM477.902 167.516H480.949V170.562H477.902V167.516ZM482.121 167.516H485.168V170.562H482.121V167.516ZM486.34 167.516H489.387V170.562H486.34V167.516ZM490.559 167.516H493.605V170.562H490.559V167.516ZM494.777 167.516H497.824V170.562H494.777V167.516ZM452.59 171.734H455.637V174.781H452.59V171.734ZM456.809 171.734H459.855V174.781H456.809V171.734ZM461.027 171.734H464.074V174.781H461.027V171.734ZM465.246 171.734H468.293V174.781H465.246V171.734ZM469.465 171.734H472.512V174.781H469.465V171.734ZM473.684 171.734H476.73V174.781H473.684V171.734ZM477.902 171.734H480.949V174.781H477.902V171.734ZM482.121 171.734H485.168V174.781H482.121V171.734ZM486.34 171.734H489.387V174.781H486.34V171.734ZM490.559 171.734H493.605V174.781H490.559V171.734ZM494.777 171.734H497.824V174.781H494.777V171.734ZM452.59 175.953H455.637V179H452.59V175.953ZM456.809 175.953H459.855V179H456.809V175.953ZM461.027 175.953H464.074V179H461.027V175.953ZM465.246 175.953H468.293V179H465.246V175.953ZM469.465 175.953H472.512V179H469.465V175.953ZM473.684 175.953H476.73V179H473.684V175.953ZM477.902 175.953H480.949V179H477.902V175.953ZM482.121 175.953H485.168V179H482.121V175.953ZM486.34 175.953H489.387V179H486.34V175.953ZM490.559 175.953H493.605V179H490.559V175.953ZM494.777 175.953H497.824V179H494.777V175.953ZM522.891 129.547H525.938V132.594H522.891V129.547ZM527.109 129.547H530.156V132.594H527.109V129.547ZM531.328 129.547H534.375V132.594H531.328V129.547ZM535.547 129.547H538.594V132.594H535.547V129.547ZM539.766 129.547H542.812V132.594H539.766V129.547ZM543.984 129.547H547.031V132.594H543.984V129.547ZM548.203 129.547H551.25V132.594H548.203V129.547ZM518.672 133.766H521.719V136.812H518.672V133.766ZM522.891 133.766H525.938V136.812H522.891V133.766ZM527.109 133.766H530.156V136.812H527.109V133.766ZM531.328 133.766H534.375V136.812H531.328V133.766ZM535.547 133.766H538.594V136.812H535.547V133.766ZM539.766 133.766H542.812V136.812H539.766V133.766ZM543.984 133.766H547.031V136.812H543.984V133.766ZM548.203 133.766H551.25V136.812H548.203V133.766ZM552.422 133.766H555.469V136.812H552.422V133.766ZM514.453 137.984H517.5V141.031H514.453V137.984ZM518.672 137.984H521.719V141.031H518.672V137.984ZM522.891 137.984H525.938V141.031H522.891V137.984ZM527.109 137.984H530.156V141.031H527.109V137.984ZM531.328 137.984H534.375V141.031H531.328V137.984ZM535.547 137.984H538.594V141.031H535.547V137.984ZM539.766 137.984H542.812V141.031H539.766V137.984ZM543.984 137.984H547.031V141.031H543.984V137.984ZM548.203 137.984H551.25V141.031H548.203V137.984ZM552.422 137.984H555.469V141.031H552.422V137.984ZM556.641 137.984H559.688V141.031H556.641V137.984ZM514.453 142.203H517.5V145.25H514.453V142.203ZM518.672 142.203H521.719V145.25H518.672V142.203ZM522.891 142.203H525.938V145.25H522.891V142.203ZM548.203 142.203H551.25V145.25H548.203V142.203ZM552.422 142.203H555.469V145.25H552.422V142.203ZM556.641 142.203H559.688V145.25H556.641V142.203ZM514.453 146.422H517.5V149.469H514.453V146.422ZM518.672 146.422H521.719V149.469H518.672V146.422ZM522.891 146.422H525.938V149.469H522.891V146.422ZM548.203 146.422H551.25V149.469H548.203V146.422ZM552.422 146.422H555.469V149.469H552.422V146.422ZM556.641 146.422H559.688V149.469H556.641V146.422ZM514.453 150.641H517.5V153.688H514.453V150.641ZM518.672 150.641H521.719V153.688H518.672V150.641ZM522.891 150.641H525.938V153.688H522.891V150.641ZM527.109 150.641H530.156V153.688H527.109V150.641ZM531.328 150.641H534.375V153.688H531.328V150.641ZM535.547 150.641H538.594V153.688H535.547V150.641ZM539.766 150.641H542.812V153.688H539.766V150.641ZM543.984 150.641H547.031V153.688H543.984V150.641ZM548.203 150.641H551.25V153.688H548.203V150.641ZM552.422 150.641H555.469V153.688H552.422V150.641ZM556.641 150.641H559.688V153.688H556.641V150.641ZM514.453 154.859H517.5V157.906H514.453V154.859ZM518.672 154.859H521.719V157.906H518.672V154.859ZM522.891 154.859H525.938V157.906H522.891V154.859ZM527.109 154.859H530.156V157.906H527.109V154.859ZM531.328 154.859H534.375V157.906H531.328V154.859ZM535.547 154.859H538.594V157.906H535.547V154.859ZM539.766 154.859H542.812V157.906H539.766V154.859ZM543.984 154.859H547.031V157.906H543.984V154.859ZM548.203 154.859H551.25V157.906H548.203V154.859ZM552.422 154.859H555.469V157.906H552.422V154.859ZM556.641 154.859H559.688V157.906H556.641V154.859ZM514.453 159.078H517.5V162.125H514.453V159.078ZM518.672 159.078H521.719V162.125H518.672V159.078ZM522.891 159.078H525.938V162.125H522.891V159.078ZM548.203 159.078H551.25V162.125H548.203V159.078ZM552.422 159.078H555.469V162.125H552.422V159.078ZM556.641 159.078H559.688V162.125H556.641V159.078ZM514.453 163.297H517.5V166.344H514.453V163.297ZM518.672 163.297H521.719V166.344H518.672V163.297ZM522.891 163.297H525.938V166.344H522.891V163.297ZM548.203 163.297H551.25V166.344H548.203V163.297ZM552.422 163.297H555.469V166.344H552.422V163.297ZM556.641 163.297H559.688V166.344H556.641V163.297ZM514.453 167.516H517.5V170.562H514.453V167.516ZM518.672 167.516H521.719V170.562H518.672V167.516ZM522.891 167.516H525.938V170.562H522.891V167.516ZM548.203 167.516H551.25V170.562H548.203V167.516ZM552.422 167.516H555.469V170.562H552.422V167.516ZM556.641 167.516H559.688V170.562H556.641V167.516ZM514.453 171.734H517.5V174.781H514.453V171.734ZM518.672 171.734H521.719V174.781H518.672V171.734ZM522.891 171.734H525.938V174.781H522.891V171.734ZM548.203 171.734H551.25V174.781H548.203V171.734ZM552.422 171.734H555.469V174.781H552.422V171.734ZM556.641 171.734H559.688V174.781H556.641V171.734ZM514.453 175.953H517.5V179H514.453V175.953ZM518.672 175.953H521.719V179H518.672V175.953ZM522.891 175.953H525.938V179H522.891V175.953ZM548.203 175.953H551.25V179H548.203V175.953ZM552.422 175.953H555.469V179H552.422V175.953ZM556.641 175.953H559.688V179H556.641V175.953Z" fill="white"/>
<path d="M273 222V165.75H284.25V169.5H288V177H291.75V184.5H295.5V192H299.25V184.5H303V177H306.75V169.5H310.5V165.75H321.75V222H310.5V192H306.75V195.75H303V203.25H299.25V207H295.5V203.25H291.75V195.75H288V192H284.25V222H273ZM341.25 222V218.25H337.5V169.5H341.25V165.75H378.75V177H348.75V188.25H367.5V199.5H348.75V210.75H378.75V222H341.25ZM424.5 210.75V177H405.75V210.75H424.5ZM394.5 222V165.75H432V169.5H435.75V218.25H432V222H394.5ZM451.5 222V165.75H462.75V222H451.5ZM508.5 188.25V177H489.75V188.25H508.5ZM478.5 222V169.5H482.25V165.75H516V169.5H519.75V222H508.5V199.5H489.75V222H478.5Z" fill="white"/>
<path d="M353.529 109.213C349.886 99.1518 344.142 90.3322 338.357 81.3925C333.27 73.5299 334.338 67.44 342.559 61.8427C347.446 58.5154 349.177 59.6743 349.371 65.4254C349.626 72.9933 350.157 81.5211 346.717 88.5136C344.067 93.8996 340.089 98.4921 337.959 104.171C337.19 106.223 333.975 115.232 338.446 110.762C342.054 107.154 345.639 104.344 350.079 101.783C353.08 100.051 356.108 98.2712 359.102 96.4751" stroke="#FBFAF2" stroke-width="3" stroke-linecap="round"/>
<path d="M31.7337 46.9505C41.6603 69.3151 42.7857 93.0435 37.3804 116.709" stroke="white" stroke-width="4" stroke-linecap="round"/>
<path d="M43.1415 42.26C49.73 42.9137 90.1562 41.303 91.414 47.8684C95.1163 67.1947 77.8607 67.7614 64.2863 69.6313C59.0703 70.3498 67.087 75.2578 68.4576 76.7708C74.2415 83.1555 83.8576 90.0973 82.0114 99.9217C79.3429 114.122 29.102 120.652 43.5302 119.876" stroke="white" stroke-width="4" stroke-linecap="round"/>
<path d="M103.908 80.6495C107.663 90.5235 108.675 98.8554 109.23 109.188C109.671 117.377 107.392 115.339 105.432 108.971" stroke="white" stroke-width="4" stroke-linecap="round"/>
<path d="M109.632 46.257C100.877 46.9479 97.9202 49.3463 101.85 58.0372C104.961 64.9191 110.397 64.8562 116.783 61.8625C128.238 56.4932 110.907 34.7518 111.926 53.7079" stroke="white" stroke-width="4" stroke-linecap="round"/>
<path d="M131.095 128.42C143.862 118.785 146.19 114.746 147.508 99.1331C148.184 91.1328 147.635 83.3763 146.757 75.3986C146.03 68.7911 147.173 52.5722 141.877 47.2575C136.49 41.852 132.864 87.0002 133.055 90.548C133.449 97.8831 134.546 105.471 141.838 109.116C145.815 111.104 149.62 110.637 150.747 106.533" stroke="white" stroke-width="4" stroke-linecap="round"/>
<path d="M173.015 27.6984C181.281 40.2227 184.729 46.8854 186.66 62.3111C188.348 75.8007 190.872 88.6779 193.944 101.895C194.664 104.991 198.627 112.535 195.711 111.268C189.776 108.689 183.71 97.8921 178.867 93.4484C174.636 89.5659 168.915 83.5532 162.426 85.0755C154.361 86.9677 156.355 103.539 159.688 108.472C164.137 115.057 177.903 117.64 184.589 113.76C191.478 109.761 192.113 103.885 193.767 96.6443" stroke="white" stroke-width="4" stroke-linecap="round"/>
<path d="M212.242 88.0761C218.886 86.2384 226.889 84.5021 229.654 77.3558C234.129 65.7881 227.152 64.5406 218.902 71.0963C206.422 81.0148 203.065 97.8966 215.629 109.986C227.43 121.339 233.539 109.937 243.467 105.332" stroke="white" stroke-width="4" stroke-linecap="round"/>
<path d="M256.845 72.4213C264.496 79.4992 271.515 87.5319 277.881 95.8009C280.445 99.1316 285.136 109.854 279.217 101.094C275.574 95.7019 259.833 67.0578 271.031 64.2941C281.162 61.7936 293.19 62.8915 303.642 62.3292" stroke="white" stroke-width="4" stroke-linecap="round"/>
<path d="M9.52303 37.3594C9.63002 40.1773 10.0906 42.9334 10.4459 45.7267C11.9071 57.2135 13.0169 68.7806 13.8299 80.3342C14.8062 94.21 14.9839 108.119 15.6244 122.011C16.0544 131.338 16.4047 137.108 17.1626 146.345C17.438 149.702 17.7252 153.059 18.0854 156.407C18.315 158.541 18.5431 160.679 18.9314 162.788C19.0748 163.567 18.9614 165.331 19.6749 165.039C20.5383 164.686 20.1756 163.184 20.2901 162.232C20.5354 160.194 20.6698 158.142 20.7516 156.089C20.9916 150.067 20.9187 141.019 20.7516 135.224C20.1966 115.98 18.605 97.5608 12.907 79.1691C12.6772 78.4275 9.07194 62.2374 7.72851 72.0199C7.03753 77.0514 7.10072 78.4885 7.62598 84.3589C9.24609 102.466 12.1402 120.569 14.9579 138.508C15.5516 142.288 16.1101 146.08 16.9318 149.814C17.1397 150.759 17.2025 152.936 18.0342 152.488C19.0906 151.919 18.5458 150.081 18.7007 148.861C18.9563 146.847 19.2211 144.827 19.2647 142.797C19.4327 134.974 18.7081 128.289 17.5214 120.449C15.8784 109.594 14.245 97.3027 10.7023 86.8479C9.691 83.8635 11.3178 93.1409 11.7277 96.2743C12.573 102.735 13.5479 110.105 14.317 116.557C15.806 129.049 16.4218 141.655 17.9316 154.13C18.4523 158.432 30.0637 156.507 31.1085 156.513C41.1064 156.568 51.1052 156.621 61.1027 156.513C77.9568 156.331 94.7358 154.573 111.58 154.342C112.529 154.329 132.728 153.18 118.579 157.44C104.745 161.604 89.744 163.731 75.4075 165.039C68.8205 165.64 60.4115 166.716 53.7708 165.304C52.0201 164.932 57.2957 164.656 59.0774 164.51C69.008 163.692 96.5584 161.747 103.376 161.253C112.548 160.587 138.05 158.829 149.367 157.678C152.036 157.407 154.709 157.099 157.34 156.566C158.705 156.29 162.246 155.448 161.083 154.66C160.016 153.937 158.587 154.068 157.315 153.971C153.229 153.661 149.13 153.565 145.035 153.442C134.78 153.133 114.974 152.82 104.684 152.647C101.402 152.592 98.1194 152.607 94.8396 152.488C94.002 152.458 96.514 152.402 97.3519 152.382C112.529 152.029 127.689 151.745 142.856 150.979C174.339 149.389 205.987 147.712 237.35 144.386C242.957 143.791 247.894 141.363 253.578 140.52C266.196 138.649 278.927 137.58 291.57 135.886C293.842 135.582 309.266 133.382 296.851 134.854C293.517 135.249 283.864 136.425 280.598 136.919C280.225 136.975 274.024 137.783 272.651 138.825C271.27 139.874 276.114 138.83 277.778 138.402C285.572 136.397 293.262 133.728 300.774 130.802C302.767 130.026 304.63 129.037 306.593 128.207C308.087 127.576 310.213 128.641 311.669 129.028C312.774 129.322 314.076 129.454 314.386 130.829C314.544 131.529 314.09 133.797 314.104 133.689C315.184 125.321 313.967 116.36 314.232 107.951C314.974 84.4074 319.591 61.1472 320.308 37.6507C320.342 36.5481 320.962 33.8416 319.129 34.3673C317.174 34.9283 317.745 37.4009 317.745 39.107C317.745 46.0219 318.942 58.7642 319.462 64.7118C319.914 69.8777 320.425 75.0379 320.898 80.2018C321.306 84.6605 322.364 89.1503 321.872 93.5999C321.814 94.1261 320.813 93.1458 320.641 92.6467C319.381 88.9768 317.559 78.6992 317.206 76.8125C315.781 69.1907 312.557 50.9453 311.259 43.2377C310.31 37.6046 309.157 31.8299 308.977 26.0795C308.93 24.5584 308.818 23.9012 309.003 25.6029C309.637 31.4492 309.827 33.2 310.695 39.8749C310.95 41.8351 312.161 51.7556 313.028 54.8618C313.145 55.2843 313.516 56.1996 313.822 55.8944C314.382 55.3369 314.847 49.902 314.848 49.8573C314.935 39.8897 311.289 29.9566 309.157 20.3602C308.628 17.9806 307.784 14.7839 308.029 12.1518C308.053 11.8934 309.41 9.0529 308.772 8.81552C306.848 8.10013 302.808 9.59051 300.722 9.63636C290.223 9.86709 279.57 6.98817 269.164 5.90287C254.282 4.3506 239.275 5.25985 224.353 5.42625C222.262 5.44956 216.074 5.49158 218.097 4.94964C223.425 3.52295 229.326 2.57658 234.812 2.14291C236.363 2.0203 237.924 1.95379 239.478 2.03699C240.244 2.07804 241.941 1.75019 241.734 2.51361C241.488 3.4222 240.022 3.21958 239.119 3.36093C236.06 3.83957 232.973 4.10496 229.89 4.3671C213.292 5.77845 196.867 5.24891 180.259 4.68485C177.483 4.59056 169.207 3.97121 171.927 4.55246C172.505 4.67603 173.254 4.83823 173.747 5.21442C176.278 7.14651 167.557 6.49778 164.416 6.69723C149.633 7.63588 134.846 8.47333 120.065 9.451C107.116 10.3075 94.1368 11.534 81.1756 10.4307C74.8364 9.89107 69.6871 10.1488 63.5637 11.5163C61.1502 12.0553 58.8982 13.3344 56.642 14.3231C53.7471 15.5916 46.3179 17.5037 54.8218 17.9242C58.6805 18.1149 62.5485 17.9985 66.4093 18.136C67.9574 18.1911 69.5039 18.2931 71.0494 18.4008C71.8966 18.4598 75.1301 18.7925 71.8698 18.5067C63.6065 17.7823 55.3486 16.8911 47.0541 16.6532C41.8572 16.5041 36.9349 17.7448 31.852 18.7715C24.3372 20.2893 16.8708 21.4695 9.26668 22.3726C6.96876 22.6455 0.319871 22.3259 2.39623 23.3787C5.41101 24.9074 9.47695 24.2835 12.1892 26.6091C14.4321 28.5323 12.5519 30.7234 11.7533 32.8051C11.0173 34.7239 11.5628 37.2282 10.1896 38.8422C8.20012 41.1805 7.27947 41.5845 7.49777 45.0117C7.6337 47.1457 8.00808 49.1429 8.60012 51.1813" stroke="#B6D9CF" stroke-width="3" stroke-linecap="round"/>
</svg>
