<svg width="156" height="89" viewBox="0 0 156 89" fill="none" xmlns="http://www.w3.org/2000/svg">
<path d="M85.5754 7.31234C77.5953 -0.198389 69.4123 1.38584 59.4018 3.88846C49.9235 6.25802 38.0471 7.65452 30.3368 14.1601C25.017 18.6487 30.3206 22.9934 33.5324 26.5622C41.2055 35.0878 57.8735 55.7544 70.6625 52.9641C73.8069 52.278 85.2031 37.0702 82.8363 34.7034" stroke="black" stroke-width="3" stroke-linecap="round"/>
<path d="M114.336 8.6819C109.85 20.1771 113.72 29.468 119.966 40.2577C123.672 46.6588 128.708 52.1605 132.597 58.4423C134.945 62.2357 135.812 52.1281 136.173 49.8446C138.005 38.2426 140.876 26.1912 147.205 16.1384C149.54 12.4295 151.412 0.170902 148.575 8.6819" stroke="black" stroke-width="3" stroke-linecap="round"/>
<path d="M44.4888 68.9422C62.126 66.3171 80.4048 62.3028 98.3579 63.7683C99.1775 63.8352 110.075 64.4826 110.075 65.5183C110.075 71.8608 66.3956 70.3117 62.1409 70.3117C59.6382 70.3117 35.965 71.3682 35.3585 68.9422C34.8932 67.081 64.7486 69.2163 65.0321 69.2465C93.2076 72.2534 121.52 76.5275 149.26 82.3334C155.271 83.5917 154.922 83.9079 149.792 83.3986C139.7 82.3965 129.596 81.4189 119.51 80.3551C100.214 78.32 81.0732 75.7697 61.6843 74.7248C55.0252 74.3659 53.2244 75.0733 59.63 75.7139C82.3529 77.9862 150.557 80.549 127.803 82.4855C103.458 84.5575 78.0666 81.3307 53.7714 79.9747C41.6644 79.299 29.5328 78.5939 17.4021 78.5291C13.6639 78.5091 6.06671 77.4724 2.64142 79.8986C0.562369 81.3713 6.09334 85.0044 7.13049 85.3007C12.9011 86.9495 19.3684 86.7464 25.3151 86.7464" stroke="black" stroke-width="3" stroke-linecap="round"/>
</svg>
