<svg width="464" height="303" viewBox="0 0 464 303" fill="none" xmlns="http://www.w3.org/2000/svg">
<path d="M1.87083 39.2204C4.30437 34.1986 5.13987 32.4127 9.48276 30.2635C15.4245 27.323 21.2981 24.9799 27.4154 22.5655C34.1032 19.9258 42.3494 16.5734 49.4064 16.1086C52.9976 15.8721 56.3684 15.0378 59.9752 14.9597C64.387 14.8642 68.7438 16.1391 73.134 16.5662C77.9594 17.0356 83.0446 20.5382 87.9521 21.5104C92.2962 22.3711 96.7019 22.7078 101.094 22.3505C106.723 21.8927 112.948 18.9862 118.358 17.4273C121.11 16.6344 123.862 15.7499 126.575 14.6424C131.605 12.5895 136.689 12.8525 141.773 11.3486C150.577 8.74411 160.048 6.91051 169.004 5.23841C174.062 4.29402 179.306 2.25504 184.42 2.14433C190.165 2.01994 195.751 2.2248 201.457 2.64446C209.331 3.22356 218.705 3.98203 226.325 6.24659C235.08 8.84832 244.564 6.36291 253.43 6.17096C258.449 6.06229 264.174 8.44291 268.835 10.4891C275.268 13.3135 283.239 15.0991 289.02 19.6622C296.695 25.7209 306.161 28.6993 314.407 33.3743C321.789 37.5596 329.424 40.8332 336.666 45.2628C343.163 49.2365 348.853 55.0594 354.378 61.0324C358.163 65.1243 360.265 72.228 360.972 78.3717C361.722 84.8882 360.896 90.4509 361.327 96.7663C361.554 100.077 362.954 103.569 363.094 107.054C363.36 113.652 363.38 120.275 363.523 126.878C363.597 130.294 365.202 133.102 365.271 136.297C365.351 139.985 365.156 143.166 364.683 146.789C363.673 154.535 363.716 162.992 366.607 170.261C369.991 178.769 370.979 188.313 375.492 196.343C378.399 201.515 382.303 204.354 386.134 208.483C389.884 212.524 395.57 216.004 399.878 219.278C406.349 224.195 412.098 230.926 417.637 237.244C422.516 242.81 425.873 249.913 429.254 256.775C430.553 259.411 432.508 261.626 433.701 264.091C436.929 270.757 442.718 275.06 445.662 281.672C446.186 282.849 448.065 283.616 448.942 284.617C450.863 286.808 452.721 289.43 454.919 291.235C456.025 292.143 457.723 295.987 458.417 294.328C462.047 285.656 461.683 274.844 461.476 265.279C461.379 260.8 461.282 256.32 461.185 251.841C461.098 247.81 462.131 259.851 462.218 263.882C462.409 272.686 461.576 279.918 460.475 288.354C460.024 291.813 458.652 293.697 456.918 296.406C455.367 298.828 453.236 297.807 450.453 298.897C446.517 300.437 440.611 299.314 436.439 299.405C434.508 299.447 423.531 297.921 422.088 300.176C420.898 302.034 412.677 299.919 417.448 299.816C422.869 299.699 428.175 298.78 433.547 298.547C436.342 298.426 444.399 300.03 446.574 298.061C448.724 296.115 453.897 298.57 455.179 295.319" stroke="#FF8B5C" stroke-width="3" stroke-linecap="round"/>
</svg>
