<svg xmlns="http://www.w3.org/2000/svg" width="113" height="197" fill="none" xmlns:v="https://vecta.io/nano"><path fill-rule="evenodd" d="M2.14 31.065c.017.027.082.049.145.049.151 0 .663.295.901.519.103.098.212.169.241.16.074-.025.833.744.939.952.219.426.568.854 1.305 1.599.475.48.88.945 1.009 1.157a6.54 6.54 0 0 0 .443.631c.231.281 1.151 1.186 1.281 1.261.266.152 1.249 1.773 1.249 2.058 0 .072.05.195.111.273s.111.158.111.178.121.179.268.352c.305.357.619.857.619.983 0 .047.046.177.103.29l.195.391c.051.102.131.377.179.61s.108.436.132.452c.086.054.5 1.037.5 1.188 0 .042.101.235.223.429l.319.512c.053.088.148.225.213.305s.233.366.373.636.332.576.424.681.167.213.167.241.119.171.264.319l.355.385c.05.064.128.139.174.165s.144.139.22.252c.363.539 1.28 1.493 1.565 1.628.1.047.33.206.511.352.393.317.605.374.893.243.538-.245 1.206-.879 1.316-1.25.043-.146.064-.303.046-.35s-.006-.14.028-.206.096-.212.14-.323.156-.246.252-.303c.259-.153.238-.36-.122-1.242l-.299-.703c-.071-.158-.129-.333-.129-.389s-.054-.201-.119-.322a17.69 17.69 0 0 1-.419-.913l-.376-.776c-.087-.096-.317-.611-.273-.611.016 0 .01-.031-.014-.069a.46.46 0 0 1-.055-.147c-.006-.043-.032-.093-.057-.111s-.054-.095-.065-.17-.098-.246-.194-.381c-.215-.3-.214-.3-.399-.675-.083-.168-.241-.438-.351-.6a7.09 7.09 0 0 1-.346-.572c-.08-.152-.195-.312-.256-.355-.118-.083-.372-.645-.338-.748.011-.034.176.083.366.261s.46.398.6.489c.281.183.277.181.633.365.137.071.351.206.474.3a2.34 2.34 0 0 0 .499.274c.151.056.314.137.362.178a.4.4 0 0 0 .225.076c.076 0 .186.037.245.081s.204.082.322.083c.161.001.311.067.61.266.218.145.496.311.618.367s.529.351.904.654l.888.671.704.46c.591.461.9.655 1.304.82a1.46 1.46 0 0 1 .166.084c.243.146 1.464.423 2.524.572.214.03.436.08.494.111.209.111.859.136 1.364.052a3.64 3.64 0 0 1 .719-.033c.269.02.439-.001.68-.084.177-.061.391-.111.476-.111s.179-.024.208-.053.39-.069.802-.088c.661-.031.792-.054 1.119-.197.203-.089.458-.162.565-.162s.21-.023.227-.052.175-.069.35-.09.405-.083.512-.136a2.94 2.94 0 0 1 .61-.173c.469-.085 2.037-.105 2.635-.034l.79.092c.221.025.436.074.477.108s.148.049.236.031c.194-.038.611.026 1.412.217l.579.111a4.02 4.02 0 0 1 .526.114c.167.048.404.1.527.114l.584.075c.213.029.537.028.792-.003.237-.028.637-.038.888-.021l1.288.114.472.088.61.131a5.85 5.85 0 0 0 .767.118c.278.024.472.066.488.107s.106.068.204.069.378.058.622.126l.767.19c.198.04.344.102.377.161s.121.096.243.096c.133 0 .207.033.249.111a.23.23 0 0 0 .191.111c.073 0 .24.045.373.1s.285.09.34.079.13.004.168.035c.069.057.116.07.617.174.151.031.327.106.391.166.087.082.188.108.396.104.291-.007.928.185 1.063.32.041.041.117.076.169.077.1.002.52.147.854.295.114.05.256.091.316.091s.125.025.144.056.118.055.221.055.303.05.445.111a1.37 1.37 0 0 0 .408.111c.082 0 .199.033.259.072s.297.143.526.23l.477.205c.064.049.496-.015.75-.111.172-.065.884-.071.964-.008.117.093.873.182 1.886.224 1.025.042 1.263.072 1.395.175.12.093.285.092.388-.002.057-.052.185-.152.285-.223.176-.124.189-.126.406-.039.123.049.25.073.281.054s.511-.042 1.064-.05l1.75-.081c.409-.036.852-.053.983-.037s.254.006.272-.023.094-.052.169-.052c.144 0 .787-.163 1.161-.294a2.54 2.54 0 0 1 .607-.089l.416-.03c.071-.041 1.152.083 1.386.159a6.69 6.69 0 0 0 1.557.256c.198.001.46.038.582.082s.323.08.447.081.251.027.283.059c.055.055.26.095 1.129.22a5.58 5.58 0 0 1 .693.154c.183.056.458.108.61.115s.415.047.582.087a2.92 2.92 0 0 0 .527.078c.335.005 1.017.06 1.942.157.672.071.852.108.933.194.056.058.175.121.265.139s.177.054.193.081.108.048.204.048c.267 0 1.082.273 1.258.422.087.073.197.133.245.133.128 0 .375.117.554.261a.96.96 0 0 0 .296.162c.104.026.12.047.065.082s-.057.047.012.048c.047.001.171.088.274.195s.232.194.286.194.205.102.336.227l.326.306c.076.068.206.391.249.621a.8.8 0 0 0 .101.206c.048.074.088.184.088.246s.089.229.198.372c.176.23.188.265.105.312s-.445.031-.913-.036c-.295-.042-1.591-.152-1.64-.139-.094.025-.991-.069-1.161-.121-.582-.179-4.312-.243-4.578-.079-.025.015-.149.038-.275.05s-.327.087-.447.166-.228.144-.242.144-.096.03-.182.067a1.44 1.44 0 0 1-.406.079 5.88 5.88 0 0 0-.582.069 8.25 8.25 0 0 1-.804.08c-.259.013-.621.054-.804.091-.404.083-.546.087-1.084.032-.4-.041-.434-.035-.761.13-.212.107-.427.173-.563.173-.121 0-.236.025-.254.056s-.229.055-.466.055c-.283 0-.493.03-.608.088-.212.106-.925.213-1.053.158-.185-.078-.349-.07-.578.031-.191.084-.341.1-.811.085-.406-.013-.59-.041-.622-.093-.026-.041-.045-.237-.043-.436s-.012-.448-.031-.554l-.141-1.031a4.23 4.23 0 0 0-.139-.686c-.046-.13-.084-.287-.084-.349s-.077-.315-.172-.564c-.139-.365-.242-.527-.541-.85-.309-.334-.425-.419-.713-.521-.339-.12-.346-.12-.571-.019-.125.056-.303.189-.396.294-.159.181-.166.21-.136.531l.085 1.656c.018 1.135.027 1.189.256 1.51.292.41.52.813.522.919.002.128.293.385.436.385.188 0 .884.371.96.513.066.123.103.271.219.874.032.168.076.654.097 1.081.026.522.065.823.121.92.211.369.426.604.609.666.107.036.337.136.512.224s.353.159.396.159.093.037.111.083c.026.069.175.083.852.084.787.001 1.081-.03 2.651-.28l.943-.138c.153-.017.365-.054.472-.081s.506-.079.887-.115l.818-.088c.22-.039.476-.07.874-.105.213-.019.426-.049.472-.066.158-.06.475-.078 1.276-.075 1.053.004 1.273.022 1.327.109.025.04.104.102.177.138s.141.126.151.199.051.185.09.248c.143.23.149.412.02.587-.067.091-.143.166-.169.166s-.152.068-.281.151c-.334.215-.464.281-.872.443a3.55 3.55 0 0 0-.471.218c-.06.041-.178.075-.263.075-.21 0-.987.181-1.459.34-.092.031-.366.1-.61.153s-.544.148-.666.21-.284.132-.361.155c-.244.074-1.352.707-1.564.894a1.41 1.41 0 0 1-.444.252c-.326.097-.694.353-.8.557-.121.233-.437.68-.74 1.042l-.326.398a2.58 2.58 0 0 0-.312.878c-.008.107-.103.331-.21.499-.301.472-.383.657-.409.918-.013.132-.048.306-.079.386a1.01 1.01 0 0 0-.056.294c0 .082-.04.261-.089.398a4.03 4.03 0 0 0-.137.527l-.279 1.386c-.018.031-.065.251-.105.49-.044.267-.122.508-.202.626-.072.105-.13.253-.13.328s-.022.18-.049.233c-.131.258-.167.421-.224 1.011-.11 1.144-.117 1.177-.288 1.383-.122.148-.16.252-.16.433a1.23 1.23 0 0 1-.279.764c-.095.101-.106.186-.094.699.009.398-.008.61-.055.667-.085.103-.179.733-.18 1.217-.001.202-.039.475-.086.607-.091.259-.11.703-.052 1.267a2.63 2.63 0 0 1-.03.693l-.138.937c-.023.232-.066.389-.11.406s-.087.07-.105.121a1.02 1.02 0 0 1-.084.176c-.029.046-.082.233-.118.416s-.104.425-.151.538-.082.318-.08.457c.004.172-.049.371-.166.627-.224.491-.269.667-.319 1.248-.034.403-.064.509-.176.628s-.132.193-.121.402l.044.841c.029.53.021.593-.08.701-.118.127-.115.157.076.796.041.137.088.446.103.687s.055.464.088.496.059.105.059.162c0 .145.148.417.387.707.284.346.431.691.46 1.076.018.248.053.351.142.423.064.052.103.109.085.127s.033.11.113.205.146.205.146.243.272.348.605.687c.525.536.671.65 1.104.868.275.138.57.31.657.383s.32.208.518.299c.205.095.426.247.513.353.407.498.581.683.722.769.154.094.46.481.745.942l.502.742c.191.271.348.524.348.562s.107.228.239.422.274.463.317.597c.047.147.193.367.364.55.341.363.582.815.622 1.164.022.191.068.287.189.388.088.075.212.238.275.364s.146.266.184.312c.07.084.152.331.17.516.006.056.038.129.073.164s.063.164.064.287c.001.148.06.329.174.53l.342.61a3.93 3.93 0 0 0 .442.607c.151.166.326.41.39.541s.136.238.161.238.132.136.238.301.218.317.249.336.056.082.056.139.087.297.194.531.194.458.194.497.085.229.188.423.23.5.282.683.167.413.256.514.161.228.161.282.049.2.109.324c.146.301.284.676.32.868.016.086.064.17.106.186s.076.078.076.138.06.213.133.341.151.314.172.416c.038.183.414.891.571 1.075.053.062.07.154.048.262-.025.124.021.283.18.625.265.572.293.661.231.76-.034.054-.004.139.098.273.125.164.153.266.178.669.023.356.067.554.177.786.081.17.16.38.176.466s.054.183.086.215c.072.071.075.502.006.742-.028.099-.03.18-.005.18.051 0 .038.272-.025.507-.047.178.028.332.407.837l.34.485c.108.201.158.61.095.776s.035.634.21 1.027a1.74 1.74 0 0 1 .105.384c.02.139.097.288.214.415.352.382.412.588.302 1.038-.016.065.005.184.047.265s.063.182.047.224.022.105.09.141.192.226.281.423c.135.301.161.429.157.785-.003.302-.035.485-.11.632-.058.114-.106.317-.106.452 0 .15-.032.272-.083.314s-.083.165-.083.326a6.63 6.63 0 0 1-.061.7c-.056.405-.051.471.058.758.164.435.289.573.672.745.43.193.466.335.273 1.075-.118.454-.117.687.004 1.331l.171 1.145c.061.609.242 1.155.498 1.504.57.777.937 1.366.937 1.505 0 .031.074.172.163.313s.18.336.199.432.109.322.197.502.161.357.161.393.05.112.112.168.215.295.341.531.281.487.345.558.214.291.334.49l.293.443c.149.164.403.584.404.668.001.12.322.733.606 1.16a7.94 7.94 0 0 1 .405.693c.092.184.213.385.268.446s.171.254.257.428l.413.832c.151.303.382.655.563.857s.325.42.348.526a1.12 1.12 0 0 0 .132.323c.2.301.25.442.181.511-.13.13-.083.287.294.993.03.056.129.128.221.16.242.084.584.437.584.602 0 .075.087.296.194.49s.194.422.194.507.071.265.158.402c.16.252.176.301.311.937a7.06 7.06 0 0 0 .196.706c.066.19.106.368.089.396s.003.135.045.237c.049.121.067.317.051.563-.019.279-.003.412.059.506.084.128.109.515.066 1.03-.075.905-.004 2.068.142 2.342.109.204.152.616.079.761s-.142.872-.168 1.756c-.008.278-.03.531-.049.562s-.048.24-.063.464l-.142 1.188c-.026.032-.062.167-.078.3s-.058.274-.092.316c-.04.047-.048.176-.025.357.04.3-.082.827-.303 1.312-.059.13-.108.297-.108.371 0 .208-.099.418-.197.418-.049 0-.311-.216-.581-.48-.521-.507-.878-.758-1.04-.73-.214.036-.65-.253-1.056-.7l-.478-.554c-.062-.092-.093-.098-.231-.043-.088.035-.36.069-.604.075-.355.009-.513-.016-.792-.123-.224-.087-.363-.114-.388-.078-.044.062-.505.193-.682.193-.062 0-.282-.072-.489-.16a2.35 2.35 0 0 0-.794-.188c-.374-.025-.459-.011-.8.134-.21.089-.494.176-.631.193a3.44 3.44 0 0 0-.416.078 4.24 4.24 0 0 1-.582.079l-.666.084c-.513.106-1.368.225-1.614.224-.222 0-.551.07-1.326.285l-.499.125a2.88 2.88 0 0 0-.549.196c-.315.162-.605.267-1.087.396-.332.089-.434.095-.7.04-.277-.057-.347-.05-.638.056a2.71 2.71 0 0 1-.687.131c-.293.011-.383.037-.483.141-.067.069-.164.127-.215.127s-.283.097-.516.215c-.559.285-.737.341-1.2.375a4.77 4.77 0 0 0-.767.131c-.356.098-.418.099-1.054.021-.793-.096-1.053-.158-1.148-.271-.038-.046-.101-.083-.141-.083-.088 0-.397-.254-.466-.383s-.166-.878-.195-1.53l-.06-1.054c-.026-.362-.012-.59.049-.831.102-.404.137-.759.178-1.775l.108-1.635c.042-.473.077-1.459.078-2.19.002-1.603.041-2.11.18-2.3.056-.077.138-.277.182-.445l.168-.548a1.55 1.55 0 0 0 .088-.429c0-.328.334-1.403.498-1.601.065-.079.095-.239.104-.555.008-.276.056-.565.126-.766.193-.546.551-1.22.754-1.418.106-.104.3-.354.43-.557.229-.358.768-.9 1.007-1.012.069-.033.191-.223.297-.465.196-.446.597-.894.945-1.057.264-.123.931-.67.971-.797.018-.056.14-.166.272-.243.408-.239.794-.573.982-.85a5.57 5.57 0 0 1 .392-.499c.117-.129.213-.267.213-.306s.055-.171.122-.292c.086-.157.123-.319.125-.555a.87.87 0 0 0-.178-.615c-.099-.154-.18-.313-.18-.352 0-.068-.24-.378-.507-.654a.43.43 0 0 0-.283-.124c-.089 0-.324-.075-.522-.167a1.46 1.46 0 0 0-.747-.166c-.229 0-.451.033-.542.08-.085.044-.288.098-.45.119-.268.036-.323.069-.605.369-.171.181-.344.396-.386.477s-.223.289-.404.463c-.277.267-.384.434-.686 1.065-.366.764-.458 1.034-.505 1.474a5.91 5.91 0 0 1-.414 1.399 2.79 2.79 0 0 0-.225.952c.001.058-.046.2-.106.317a1.2 1.2 0 0 0-.108.461 1.88 1.88 0 0 1-.078.487c-.043.131-.094.42-.115.643s-.082.483-.138.582c-.071.124-.11.341-.131.723-.026.475-.05.575-.183.776-.16.242-.212.44-.305 1.173-.059.463-.07.488-.789 1.787-.22.396-.314.627-.314.768 0 .199-.107.447-.284.661a2.07 2.07 0 0 0-.212.416l-.228.527c-.059.122-.107.256-.107.298s-.087.219-.194.395-.195.379-.195.451-.113.379-.25.681l-.249.625c0 .041-.063.174-.139.296-.361.571-.424.804-.453 1.662-.047 1.406-.077 1.673-.21 1.869-.109.162-.117.218-.077.61.046.462.126.912.248 1.4a2.77 2.77 0 0 1 .077.527c.004.519.333 1.301.589 1.399.094.036.243.309.279.511l.066.449c.042.31.226.789.329.852.031.02.111.147.177.283a2.13 2.13 0 0 0 .296.438c.48.517.572.66 1.132 1.753.287.562.709 1.19.973 1.449.085.083.213.283.285.446s.187.345.254.406.187.236.264.388.299.458.493.681.353.435.354.472.057.12.126.185.268.407.443.759.362.675.415.715c.109.082.136.126.45.743.216.424.507 1.225.507 1.394 0 .046.098.274.218.506.138.267.253.597.311.894a6.61 6.61 0 0 0 .193.749c.055.152.13.576.166.942s.101.738.144.827.077.25.077.36c-.001.213.128.86.258 1.297.044.146.116.616.161 1.044s.119.849.165.937a.55.55 0 0 1 .018.536c-.05.122-.069.135-.087.059-.014-.057-.075-.097-.149-.097s-.207-.04-.305-.089c-.166-.083-.597-.087-1.502-.016-.046.003-.17-.008-.277-.025-.762-.122-1.022-.105-1.916.124-.093.024-.217.024-.277.001s-.215-.045-.344-.047-.4-.066-.603-.142c-.426-.16-1.104-.193-1.314-.063s-.759.039-1.062-.178c-.139-.1-.254-.163-.254-.14s-.03.013-.067-.024-.143-.066-.236-.066-.281-.037-.419-.082a10.48 10.48 0 0 0-.712-.193c-.452-.108-1.064-.401-1.064-.509 0-.03-.027-.038-.061-.017s-.135-.054-.227-.165c-.148-.179-.571-.457-.661-.435-.019.005-.348-.302-.731-.681s-.761-.715-.839-.744c-.098-.038-.206-.185-.36-.491-.121-.24-.279-.509-.352-.598s-.165-.248-.206-.355-.255-.57-.477-1.029c-.42-.868-.578-1.283-.685-1.796a3.68 3.68 0 0 0-.207-.621c-.079-.176-.13-.356-.114-.399s-.033-.212-.11-.376a4.11 4.11 0 0 1-.293-1.411c-.002-.218-.03-.307-.127-.397-.203-.189-.338-.408-.494-.807-.081-.207-.193-.444-.248-.527-.138-.207-.409-.782-.409-.868 0-.039-.05-.134-.111-.212a.61.61 0 0 1-.111-.355c0-.282-.184-.938-.298-1.064a.39.39 0 0 1-.09-.222c0-.14-.153-.458-.417-.864-.1-.154-.207-.367-.238-.474-.073-.253-.18-.707-.214-.906-.015-.086-.112-.356-.217-.601s-.179-.461-.166-.483-.026-.187-.088-.369-.161-.564-.221-.85-.171-.642-.247-.792-.123-.297-.105-.326.013-.085-.012-.123c-.067-.104-.179-.547-.181-.719-.003-.163-.15-.457-.382-.763-.22-.291-.343-.587-.272-.658.042-.042.031-.161-.035-.408-.1-.369-.132-.64-.191-1.627-.024-.404-.066-.659-.123-.748-.143-.225-.289-.799-.265-1.044.012-.126.008-.229-.009-.229-.122 0-.401-1.121-.313-1.262.018-.03-.116-.171-.298-.314-.346-.272-.418-.41-.372-.712.031-.204-.077-.454-.232-.537-.058-.031-.144-.169-.191-.308a2.5 2.5 0 0 0-.245-.488c-.133-.197-.605-1.213-.649-1.397-.028-.117-.099-.286-.22-.526-.092-.183-.192-.283-.37-.372-.134-.066-.281-.109-.325-.094s-.066.012-.047-.007c.053-.053-.571-.721-1.157-1.236-.194-.172-.23-.182-.504-.155-.507.049-1.033.441-1.686 1.254-.216.268-.768 1.279-.768 1.406 0 .115-.203.55-.333.716-.172.219-.312.68-.357 1.177-.022.244-.076.605-.12.804l-.133.668c-.055.312-.411 1.195-.625 1.55-.242.401-.495.663-.691.717-.19.052-.207.043-.605-.314-.345-.309-.449-.447-.659-.873l-.249-.57c0-.037-.055-.171-.122-.3-.074-.142-.13-.366-.142-.57-.011-.185-.054-.411-.096-.502-.305-.673-.381-.925-.31-1.039.039-.062.161-.278.27-.48s.282-.469.383-.594.184-.255.184-.289.046-.086.101-.116.132-.157.17-.283.154-.323.259-.439.191-.235.191-.263.099-.148.22-.266.363-.426.537-.686c.287-.427.402-.626.755-1.298.06-.114.13-.208.156-.208s.14-.168.255-.374a4.16 4.16 0 0 1 .585-.751c.207-.208.377-.419.377-.47s.051-.143.112-.205c.15-.15.367-.462.465-.667a.63.63 0 0 1 .189-.233c.06-.037.171-.199.245-.36s.283-.453.462-.648.366-.419.415-.499a1.09 1.09 0 0 1 .185-.225c.053-.044.143-.168.199-.277s.304-.382.551-.606.448-.445.448-.489.101-.185.224-.313.365-.419.539-.647l.381-.458c.036-.022.129-.147.206-.277s.242-.336.366-.458.362-.472.528-.778.356-.606.422-.666.17-.205.23-.324.32-.43.577-.691l.466-.516c0-.022.119-.185.265-.362l.437-.559c.28-.386 1.206-1.399 1.279-1.399.037 0 .095-.05.128-.111.055-.103.218-.228.684-.524.277-.177.875-.799 1.148-1.194.073-.107.164-.219.2-.25s.231-.305.431-.61l.701-.998c.188-.211.488-.986.448-1.157-.006-.026.031-.113.083-.192s.205-.357.34-.617.288-.511.339-.557c.105-.093.271-.378.484-.83.078-.167.24-.471.36-.675s.217-.422.217-.483c0-.143.369-.852.474-.911.044-.025.122-.125.172-.222s.187-.303.303-.457c.194-.257.638-1.135.573-1.135-.015 0 .01-.073.057-.163s.084-.209.084-.264c-.001-.108.243-.976.363-1.292.04-.106.09-.417.109-.689.024-.341.079-.599.174-.826.08-.191.126-.382.108-.454-.02-.078.01-.176.079-.264.061-.078.11-.156.11-.175s.058-.127.13-.24c.163-.26.2-.411.258-1.067l.108-.804c.034-.152.087-.501.118-.776s.082-.574.112-.665.068-.503.082-.915c.031-.852.153-1.651.297-1.939.054-.108.114-.351.133-.541a3.39 3.39 0 0 1 .144-.655c.06-.171.126-.42.146-.554s.07-.272.11-.305.09-.203.109-.376.092-.428.162-.565.196-.461.28-.721a6.93 6.93 0 0 1 .321-.804c.092-.183.164-.403.159-.488a1.49 1.49 0 0 1 .051-.378 6.45 6.45 0 0 0 .109-.787c.049-.562.092-.84.221-1.426.052-.24.052-.412.001-.777l-.095-.718c-.016-.137-.076-.309-.133-.381s-.104-.168-.104-.21c0-.083-.265-.762-.473-1.211l-.414-.934c0-.02-.062-.166-.139-.324a1.39 1.39 0 0 1-.139-.523c0-.2-.026-.254-.173-.359a.67.67 0 0 0-.647-.056c-.157.084-.694 1.045-.823 1.473-.272.901-.799 1.719-1.321 2.048-.139.088-.253.183-.253.211 0 .161-.806.994-1.118 1.156a.99.99 0 0 0-.329.314c-.124.206-.32.449-.695.861-.104.114-.188.234-.188.267s-.134.202-.299.375c-.362.382-.589.71-.589.852 0 .156-.208.535-.465.849-.296.361-.317.395-.649 1.081-.379.783-.392.818-.415 1.137-.047.635-.34 1.729-.498 1.86-.044.037-.08.129-.08.205s-.081.229-.194.354c-.107.118-.194.247-.194.286s-.144.237-.319.44c-.38.44-.544.694-.625.973-.042.143-.147.276-.338.429a4.92 4.92 0 0 0-.682.644c-.06.071-.132.095-.215.074-.075-.018-.291.037-.54.138-.537.219-.882.266-1.121.154-.325-.153-1.208.021-1.208.237 0 .029-.072.09-.161.136-.1.051-.206.184-.281.348l-.228.502c-.075.166-.107.36-.107.648 0 .226-.021.424-.046.44s-.035.227-.021.469c.019.328.001.508-.071.709l-.412.994c-.094.216-.171.423-.171.459s-.075.215-.166.396-.166.39-.166.463-.062.273-.137.444c-.147.333-.476.627-.766.685-.085.017-.201.09-.258.162s-.144.131-.193.131-.141.032-.203.07c-.095.058-.122.054-.166-.023-.068-.119-.6-.204-1.448-.232l-.647-.021-.117.159c-.065.087-.157.158-.206.158-.164 0-.456.226-.668.516l-.46.574c-.242.277-.555.741-.555.822 0 .116-.888 1.349-1.178 1.637s-.364.333-.547.333c-.247 0-.585-.182-.636-.342a2.55 2.55 0 0 0-.416-.631c-.029-.017-.052-.078-.052-.134s-.074-.181-.164-.277c-.104-.112-.173-.253-.189-.388-.013-.116-.053-.265-.088-.33s-.051-.139-.035-.165-.021-.142-.081-.26-.11-.252-.111-.299-.038-.134-.083-.193-.081-.139-.081-.178-.125-.342-.277-.674-.278-.676-.278-.765-.065-.298-.143-.465c-.223-.476-.306-.76-.328-1.115-.025-.406-.046-.473-.283-.892-.123-.218-.208-.461-.24-.685-.027-.191-.076-.398-.11-.46a.71.71 0 0 1-.06-.28c0-.213-.345-1.281-.496-1.538-.063-.106-.115-.273-.115-.37s-.075-.312-.166-.477-.166-.359-.166-.431c0-.08-.116-.256-.305-.462-.168-.182-.305-.366-.305-.408s-.037-.108-.083-.146-.083-.143-.083-.233c0-.157-.353-.837-.555-1.07-.053-.061-.106-.139-.117-.174-.041-.123-.496-.575-.58-.575-.047 0-.165-.042-.262-.094-.144-.077-.708-.17-1.148-.19-.046-.002-.262.043-.481.099-.391.101-.406.112-.973.696-.64.66-1.028.897-1.416.865-.181-.015-.234-.054-.392-.29-.1-.15-.169-.308-.152-.352s-.02-.142-.081-.219-.111-.181-.111-.229-.097-.276-.216-.505-.232-.53-.253-.668c-.043-.291-.185-.95-.258-1.196-.028-.093-.05-.221-.05-.284s-.047-.223-.103-.356-.134-.43-.171-.659c-.066-.401-.233-.88-.367-1.053-.036-.046-.08-.256-.099-.467-.024-.277-.073-.442-.174-.595-.077-.116-.14-.258-.14-.316 0-.176-.218-.61-.405-.808a7.33 7.33 0 0 1-.427-.526c-.157-.212-.355-.399-.534-.504-.157-.092-.318-.207-.358-.255a3.98 3.98 0 0 0-1.035-.713c-.099-.021-.194-.062-.211-.09s-.129-.051-.248-.051c-.16 0-.232-.029-.276-.111-.033-.061-.183-.174-.335-.251s-.275-.165-.275-.197-.187-.255-.416-.495-.416-.479-.416-.532-.143-.236-.319-.409c-.453-.445-1.307-1.429-1.374-1.581a1.02 1.02 0 0 0-.148-.231c-.14-.155-.489-.794-.491-.898-.001-.05-.038-.14-.083-.199s-.082-.147-.082-.194-.2-.484-.444-.97-.443-.948-.443-1.026-.056-.229-.124-.336-.124-.231-.125-.277-.085-.249-.186-.452c-.153-.305-.174-.389-.123-.485.063-.119.014-.285-.279-.936-.059-.13-.107-.314-.107-.407s-.034-.249-.076-.345c-.079-.184-.202-.766-.202-.961 0-.063-.062-.256-.139-.428a1.65 1.65 0 0 1-.139-.525c0-.116-.037-.334-.083-.484s-.083-.488-.083-.753c-.001-.591-.024-.665-.188-.603-.068.026-.186.035-.263.02-.124-.024-.151.002-.23.213a1.15 1.15 0 0 0 .031.933c.065.137.138.387.162.555.086.604.188 1.006.329 1.288.026.053.048.149.048.213 0 .288.247 1.113.532 1.777.074.171.134.362.134.423s.037.183.083.27a.77.77 0 0 1 .083.286c0 .07.041.206.09.302s.163.375.251.62.185.47.215.499a.26.26 0 0 1 .054.159c0 .119.407 1.013.521 1.145.041.047.091.194.111.327a1.56 1.56 0 0 0 .118.399c.045.087.082.249.082.36a.71.71 0 0 0 .11.357 2.74 2.74 0 0 1 .222.415c.074.172.278.423.602.741l.793.841a10.96 10.96 0 0 0 .68.721c.207.198.427.46.489.582.102.204.626.749.721.749.022 0 .132.08.243.178.202.177.559.335 1.013.448.174.044.276.111.367.246.07.102.241.259.381.347s.287.213.326.275.109.114.155.114c.141.001.556.47.619.7a.95.95 0 0 0 .148.315.41.41 0 0 1 .092.228c.001.069.029.161.063.204.125.159.411.936.411 1.116 0 .103.021.211.048.24s.088.227.137.44l.175.764a7.15 7.15 0 0 1 .12.721c.019.19.081.438.138.552s.1.226.097.249c-.031.189.017.404.089.404.06 0 .083.061.083.221 0 .298.098.691.257 1.027.072.153.131.318.131.367s.039.122.087.162c.054.045.075.119.055.197-.017.069-.007.141.023.159.069.043.193.313.306.67a1.64 1.64 0 0 0 .302.513c.196.214.236.233.51.241.357.01.355.01.614-.055.464-.117.902-.382 1.292-.779.675-.688 1.471-1.025 1.92-.813.391.186.489.26.609.461.068.114.188.293.267.398.293.389.723 1.209.743 1.417.006.061.048.126.094.145.099.042.499.787.499.93 0 .055.05.145.111.2.067.061.111.171.111.279 0 .098.038.21.083.248a.25.25 0 0 1 .083.166c0 .053.124.318.276.589s.277.564.277.655a1.96 1.96 0 0 0 .109.471c.059.17.132.434.162.586.053.27.532 1.598.663 1.84.036.067.066.195.066.284s.038.195.083.233.083.098.083.134.03.095.067.132.072.16.078.274.139.52.294.901.283.756.283.832.05.22.111.32.111.232.111.293.037.169.083.239c.137.208.361.926.361 1.156 0 .181.026.23.166.309.091.052.202.185.246.295.053.131.139.224.252.27.094.039.193.109.219.155.054.097.55.186.996.18.404-.006.59-.115.757-.445.077-.151.197-.313.268-.359s.163-.153.205-.237c.253-.509.615-1.031.935-1.348.202-.201.467-.495.589-.654.536-.699.778-.895 1.11-.895.079 0 .334-.039.566-.087.391-.081.427-.081.474.004.034.061.094.082.176.061.071-.017.216.016.339.079.257.131.496.139.766.026.11-.045.286-.083.392-.083.221 0 .865-.349.865-.469 0-.041.097-.247.216-.457.286-.504.394-.771.394-.972 0-.091.061-.282.136-.423s.162-.395.195-.563.097-.377.142-.464.082-.193.082-.236.087-.252.194-.464a2.86 2.86 0 0 0 .246-.733 4.73 4.73 0 0 1 .112-.542c.033-.106.056-.396.051-.644-.009-.444-.006-.453.216-.753.14-.19.294-.33.41-.373a3.42 3.42 0 0 0 .333-.148c.177-.094 1.41-.203 1.835-.161.27.026.325.012.525-.133.123-.089.283-.245.355-.347s.294-.354.493-.561c.586-.608.889-.96.889-1.035 0-.039.062-.145.139-.235s.139-.2.139-.243.063-.118.139-.168.19-.206.252-.346.147-.293.189-.34c.102-.114.64-1.356.64-1.478 0-.053.05-.2.111-.325s.125-.352.144-.503c.102-.844.439-1.805.755-2.149.071-.077.228-.269.35-.428l.402-.497c.099-.114.234-.329.3-.478a7.39 7.39 0 0 1 1.055-1.44c.102-.094.304-.215.45-.268.306-.113.53-.369.577-.662.044-.27.207-.416.358-.321.091.057.13.056.204-.002.221-.175.339-.316.529-.634.111-.187.241-.372.289-.412.18-.149.475-.663.635-1.106l.214-.521c.027-.034.065-.191.085-.349.04-.311.208-.741.331-.843.062-.051.12.008.303.312a7.03 7.03 0 0 1 .398.79l.241.527a1.78 1.78 0 0 1 .14.361l.173.527a5.68 5.68 0 0 1 .305 1.58c-.001.316-.134.976-.246 1.22-.021.046-.033.295-.028.554s-.008.497-.03.527-.057.163-.077.295-.111.387-.202.567-.165.355-.165.389-.052.135-.115.224a.8.8 0 0 0-.131.285c-.036.282-.103.587-.198.901l-.169.583-.172.558c-.057.17-.103.372-.103.449s-.051.186-.113.242-.101.132-.087.168c.039.103-.085.53-.162.559-.038.015-.057.072-.043.126s-.025.194-.087.31c-.083.155-.099.237-.058.312s.029.141-.038.244c-.091.139-.102.347-.127 2.375-.001.087-.024.187-.05.222s-.08.187-.12.34-.104.33-.143.394c-.045.073-.071.292-.068.582.004.504-.08.859-.31 1.313-.079.157-.144.337-.144.401s-.062.338-.139.609-.139.6-.14.732-.028.338-.06.46l-.105.471-.133.631c-.048.21-.076.4-.062.422.026.042-.058.404-.136.583-.357.821-.446.972-.796 1.358-.411.453-.621.794-.601.975.007.064-.025.148-.073.187s-.086.119-.086.176c0 .255-.818 1.914-1.096 2.224s-.655.912-.704 1.121c-.021.09-.174.367-.339.616s-.301.505-.301.57c0 .186-.345.845-.62 1.181l-.46.623c-.115.173-.25.345-.301.382s-.175.174-.276.304-.216.236-.256.236-.166.103-.28.23a19.35 19.35 0 0 1-.742.735l-.839.848-.957 1.138c-.054.089-.21.211-.349.272-.199.088-.281.169-.401.395-.083.157-.288.432-.456.611-.295.316-.402.471-1.049 1.521-.38.618-.562.871-.977 1.365l-.499.642c-.506.747-.956 1.334-1.052 1.371-.041.016-.194.183-.341.371l-.637.736c-.204.216-.425.503-.493.637s-.179.307-.248.383c-.125.138-.558.781-.906 1.341-.166.269-.453.665-.633.878-.403.474-.785.981-.902 1.201-.079.147-.205.351-.279.453a2.57 2.57 0 0 0-.25.495c-.064.17-.189.393-.278.495a2.19 2.19 0 0 0-.243.336c-.044.084-.171.223-.281.309-.137.107-.191.187-.17.252s-.03.154-.138.258a2.26 2.26 0 0 0-.315.412c-.08.139-.163.264-.184.279s-.165.233-.32.484-.345.524-.422.607c-.129.139-.152.145-.295.079-.432-.201-.642-.319-.722-.407-.049-.054-.133-.097-.188-.097s-.164-.03-.244-.066c-.201-.091-.477.017-.768.301l-.688.611c-.252.213-.527.489-.61.613-.301.448-.952.627-1.313.361-.147-.108-.333-.166-.752-.236-.076-.013-.211-.051-.298-.084a2.75 2.75 0 0 0-.555-.094c-.371-.03-.421-.02-.811.165-.229.108-.467.241-.528.297-.35.312-1.05 1.189-1.267 1.584l-.393.648c-.078.105-.142.23-.143.277s-.038.158-.083.245-.083.191-.083.23-.076.233-.169.431-.184.457-.202.575-.08.306-.136.419a.99.99 0 0 0-.103.288c0 .075-.321.777-.446.976l-.193.332-.389.637c-.137.212-.249.442-.249.509a.78.78 0 0 1-.108.307c-.131.221-.446 1.086-.446 1.225 0 .055-.095.229-.212.388-.266.363-.559.857-.764 1.287l-.387.722a3.93 3.93 0 0 0-.298.61c-.038.121-.152.345-.252.498a2.48 2.48 0 0 0-.253.499c-.102.323-.362.882-.453.974-.043.043-.109.266-.147.495-.065.396-.091.505-.238.983-.035.113-.07.319-.077.457-.024.462-.234 1.282-.363 1.42-.116.123-.118.148-.058.551.035.233.088.47.118.526s.055.18.055.273.023.17.052.17c.111 0 .225-.256.225-.507 0-.143.037-.331.081-.417.215-.416.363-.827.364-1.009a2.78 2.78 0 0 1 .087-.534l.129-.582c.082-.475.345-1.304.474-1.497.074-.111.147-.326.168-.499.039-.313.473-1.382.642-1.581.125-.147.737-1.332.823-1.592a1.23 1.23 0 0 1 .227-.376c.22-.235.533-.815.579-1.074.021-.119.097-.347.168-.507s.146-.376.168-.478.095-.274.164-.381c.252-.391 1.35-2.696 1.387-2.911.021-.122.111-.346.201-.499.229-.389.33-.616.33-.744 0-.144.098-.367.287-.649.084-.126.265-.465.402-.752.262-.55.401-.72 1.033-1.263.289-.249.432-.334.556-.334a.65.65 0 0 0 .303-.089c.092-.061.211-.081.373-.062.28.031 1.032.224 1.184.303.059.031.244.072.412.092.809.096 1.409.014 1.495-.206.026-.067.163-.233.303-.369.162-.157.255-.295.255-.379 0-.174.244-.507.514-.701.163-.117.301-.162.559-.183.317-.025.358-.015.532.132.333.28.448.421.448.552 0 .152-.11.411-.174.411-.025 0-.086.081-.136.18s-.151.244-.224.322-.26.39-.416.693-.376.664-.488.801c-.218.266-.472.665-.654 1.026l-1.129 2.328-.549 1.109c-.05.061-.098.196-.107.299-.017.199-.375.887-.869 1.67l-.403.697c-.058.124-.218.374-.355.555s-.321.465-.409.633a8.74 8.74 0 0 1-.357.61c-.109.167-.247.417-.305.554a14.4 14.4 0 0 1-.441.86l-.462.906c-.186.432-.523.962-.878 1.381-.392.461-1.253 1.269-1.406 1.317-.103.032-.615-.084-.831-.189-.133-.064-.885-.069-1.248-.008-.325.055-.963.335-1.141.502-.049.045-.137.11-.195.144-.243.139-.683.952-.868 1.602-.061.214-.133.416-.16.45s-.088.19-.134.345-.109.297-.14.316c-.08.05-.208-.071-.229-.214-.009-.066-.05-.121-.09-.121-.054 0-.078.14-.09.542-.017.537-.02.547-.337 1.164l-.493.9-.461.804c-.073.138-.205.35-.293.472s-.242.409-.341.637-.238.487-.308.573c-.258.316-.239.41.155.78.327.307.36.359.42.668.041.215.047.406.016.53-.027.107-.088.556-.135.998-.091.851-.286 1.747-.45 2.058-.116.221-.184.542-.227 1.068-.019.229-.011.369.02.35.067-.042.034.752-.044 1.043-.033.122-.194.509-.358.859l-.299.638-.033.97c-.033.993-.09 1.525-.181 1.702-.028.055-.083.346-.122.646-.075.578-.141.681-.328.512s-.622-.291-1.03-.282c-1.287.029-1.854.023-2.036-.02-.264-.064-1.754-.032-2.152.046-.334.066-1.536.142-2.108.134-.557-.007-1.895-.184-2.075-.273a.84.84 0 0 0-.308-.081c-.081 0-.173-.026-.205-.058s-.135-.068-.229-.08-.36-.11-.592-.219l-.467-.197c-.099 0-.381-.171-.509-.31-.075-.08-.263-.227-.418-.327-.194-.125-.363-.304-.541-.574-.142-.216-.259-.416-.259-.444s-.037-.081-.083-.119-.11-.17-.143-.293-.132-.314-.219-.423c-.143-.179-.158-.238-.151-.589.004-.215-.008-.415-.027-.445s-.062-.267-.097-.525l-.089-.561c-.016-.054.065-.201.198-.361l.832-.99c.267-.315.51-.471.738-.471.181 0 .49-.203.926-.61.168-.156.408-.357.534-.445.206-.145.391-.365.785-.934.071-.103.17-.228.219-.277s.22-.364.38-.7c.197-.414.362-.679.515-.823.139-.132.269-.33.339-.518l.198-.467c.046-.089.106-.268.132-.397s.166-.497.311-.817c.224-.497.264-.639.273-.97.006-.244.057-.513.134-.721.194-.52.301-.749.351-.749.057 0-.006-.278-.085-.378-.099-.125-.04-.547.131-.95.09-.211.164-.467.164-.568s.026-.271.058-.377.058-.456.058-.776c.001-.514.017-.611.137-.825.163-.291.169-.423.032-.647-.057-.093-.121-.343-.144-.555-.047-.447-.183-1.019-.266-1.121-.064-.079-.074-1.684-.015-2.332.034-.367.024-.435-.11-.716l-.147-.31.066-1.057.03-1.391c-.06-.554.068-2.009.202-2.302a1.82 1.82 0 0 0 .132-.388l.086-.527a7.46 7.46 0 0 0-.144-2.606 2.29 2.29 0 0 1-.085-.546 1.12 1.12 0 0 0-.137-.527 5.81 5.81 0 0 1-.467-1.43c-.021-.157-.066-.319-.099-.361s-.072-.257-.088-.479c-.021-.312-.055-.434-.146-.531a.48.48 0 0 1-.118-.295c0-.094-.037-.201-.083-.239-.062-.051-.083-.188-.083-.532 0-.254-.036-.569-.079-.7-.097-.291-.248-1.407-.244-1.804.002-.161-.025-.325-.059-.366s-.085-.185-.112-.319c-.051-.249-.105-.42-.289-.91a1.7 1.7 0 0 1-.104-.478c0-.113-.037-.231-.086-.272-.067-.055-.078-.134-.051-.354.03-.236.011-.339-.113-.615-.138-.309-.146-.366-.112-.858.02-.29.057-.602.084-.693s.061-.254.077-.361l.25-1.318c.104-.193.219-.586.257-.872.02-.152.072-.355.115-.451.072-.161.121-.403.13-.645.002-.054.066-.127.142-.161.153-.07.189-.299.077-.479-.047-.075-.041-.237.024-.651.052-.331.073-.701.054-.926-.022-.261-.012-.374.032-.374.035 0 .063.025.063.056 0 .091.263.062.299-.033.047-.123-.007-.189-.153-.189-.19 0-.296-.116-.332-.361-.034-.229-.194-.6-.376-.871l-.212-.314c-.076-.113-.127-.339-.171-.763l-.171-1.135c-.107-.529-.334-1.103-.436-1.103-.126 0-.189-.219-.258-.887-.043-.421-.273-.903-.675-1.414-.024-.03-.051-.168-.06-.305a3.68 3.68 0 0 0-.066-.471c-.027-.122-.051-.451-.051-.732s-.023-.523-.05-.539-.041-.249-.033-.516l.015-.487.247-.221c.293-.263.332-.332.451-.799.121-.474.084-.583-.181-.539l-.29.034c-.056 0-.114.088-.158.236-.038.13-.093.281-.122.335s-.037.124-.019.153.009.053-.02.053c-.098 0-.118-.257-.055-.725.075-.559.099-1.382.041-1.382-.088 0-.44-.836-.407-.967.018-.071.006-.147-.027-.167-.122-.075-.062-.197.098-.197s.158.003.131.282c-.026.271-.019.29.213.526.17.173.253.225.284.176.059-.093.056-.299-.005-.416-.028-.053-.084-.296-.125-.54-.071-.422-.083-.448-.259-.525-.147-.064-.18-.107-.16-.207.013-.07-.01-.155-.051-.189s-.075-.108-.075-.163-.031-.133-.069-.174c-.146-.154-.374-.484-.374-.54 0-.033-.031-.06-.069-.061s-.134-.07-.212-.153c-.119-.126-.158-.251-.233-.768-.05-.339-.077-.738-.062-.887s.027-.428.025-.622a2.2 2.2 0 0 1 .079-.597 2.69 2.69 0 0 0 .106-.432c.031-.248.099-.368.311-.543.169-.14.172-.148.063-.206-.07-.037-.119-.128-.13-.24-.014-.147-.056-.198-.227-.278-.133-.063-.243-.169-.301-.292-.051-.106-.114-.193-.141-.193s-.036-.163-.021-.362c.021-.284.005-.407-.077-.568-.058-.114-.129-.406-.158-.65-.065-.534-.194-1.11-.271-1.206a.79.79 0 0 1-.095-.263c-.061-.304-.147-.565-.259-.783-.095-.186-.101-.322-.079-1.747l.074-1.712c.049-.165.038-2.377-.02-3.897l-.03-.793.17-.256c.161-.243.211-.496.172-.867-.006-.056.102-.33.241-.61.272-.55.337-.784.392-1.422a4.67 4.67 0 0 1 .149-.789c.093-.306.163-.421.392-.638.182-.173.354-.416.495-.702l.26-.499a1.6 1.6 0 0 0 .119-.283c.086-.257.307-.519.881-1.044.22-.201.257-.292.236-.571-.005-.065.029-.156.075-.202.085-.085.225-.423.306-.74.121-.473.479-.909.747-.909.097 0 .422-.448.422-.582 0-.05.121-.22.27-.378.172-.183.314-.406.39-.614.066-.18.204-.41.307-.512s.253-.355.335-.561c.164-.413.357-.653.567-.705.101-.025.178-.125.294-.379a1.8 1.8 0 0 1 .805-.861c.122-.062.321-.214.441-.338.195-.201.248-.227.477-.227.304 0 .348-.041.637-.582.304-.571.697-1.192.753-1.192.027 0 .05.036.05.081s.03.146.066.225c.049.108.095.137.18.115s.204.059.489.341c.206.204.374.4.374.436s.038.079.084.097.108.095.137.172.09.14.135.14.114.044.154.097.189.156.332.228.273.165.29.208.066.077.11.077.151.059.238.131.294.203.462.29l.665.368c.198.115.394.209.435.209.12 0 .948.376 1.351.613.204.12.397.218.429.218s.174.087.314.194.281.194.314.194c.081 0 1.093.488 1.265.611.077.055.329.199.559.32l.526.279c.225.122.616.288.68.288.088 0 .824.371.864.436.017.028.125.067.24.087.224.04.69.247 1.026.457.114.071.235.129.27.129s.154.076.265.169l.858.746a1.52 1.52 0 0 0 .264.194c.253.141.794.535.905.659.058.065.129.118.158.118s.206.14.394.31.431.356.539.412a1.09 1.09 0 0 1 .277.197c.097.116.572.472 1.023.766l.943.552a1.26 1.26 0 0 1 .257.167c.019.026.356.122.748.212l.776.216c.034.029.172.075.306.103l.577.141c.611.165 1.049.236 1.68.275.468.028.672.065.808.145.112.066.372.128.677.161.273.03.608.095.745.145s.499.112.804.137.653.087.772.137c.165.07.332.086.693.067.262-.014.801.011 1.197.055.824.091 1.176.096 1.374.021.126-.048.382-.061 1.251-.065.238-.001.35-.037.585-.187.16-.102.325-.227.367-.278s.154-.131.247-.179.254-.184.355-.302.293-.278.424-.355c.149-.087.253-.194.275-.282.057-.227.434-.697.883-1.1.228-.205.444-.443.48-.53s.099-.17.14-.186.117-.111.169-.212a2.22 2.22 0 0 1 .252-.365c.087-.1.209-.275.27-.388s.272-.406.468-.65.443-.622.549-.84c.147-.302.263-.452.489-.631.634-.5.686-.57 1.021-1.375.126-.302.553-.695 1.116-1.028.57-.336.907-.657 1.119-1.063.244-.468.444-.675.848-.88s.541-.411.608-.905c.022-.159.11-.468.197-.685.137-.345.206-.435.533-.706.485-.402.624-.671.577-1.119-.04-.386.054-.79.327-1.393.105-.233.208-.508.227-.611.055-.289.161-.461.492-.8.168-.172.293-.332.278-.355s.035-.115.111-.203c.179-.208.189-.555.021-.735-.098-.105-.153-.12-.347-.09-.338.052-.527.137-.565.257-.019.058-.122.222-.23.364a1.86 1.86 0 0 0-.412.988c-.085.586-.145.822-.322 1.275-.095.244-.189.606-.207.804a1.41 1.41 0 0 1-.381.915c-.209.257-.448.637-.697 1.109-.097.183-.304.482-.461.665l-.447.573a1.84 1.84 0 0 1-.289.341c-.071.056-.128.115-.128.132 0 .051-.482.722-.592.824l-.372.35c-.149.141-.361.313-.472.383-.247.157-1.43 1.399-1.693 1.778l-.892 1.357c-.057.18-.763 1.311-.971 1.557l-.548.626-.514.615a8.59 8.59 0 0 1-.502.582c-1.416 1.511-1.525 1.611-1.742 1.612a.36.36 0 0 0-.22.115c-.072.079-.148.106-.244.087s-.184.013-.279.1c-.167.154-1.052.415-1.427.421a2.87 2.87 0 0 1-.57-.064c-.168-.038-.517-.064-.777-.06-.631.012-2.522-.16-2.84-.258l-.428-.121a3.84 3.84 0 0 1-.569-.22c-.306-.149-.362-.157-1.086-.156-.787.001-1.694-.115-2.086-.265-.118-.045-.262-.067-.322-.048s-.166-.004-.239-.051-.252-.115-.4-.151-.331-.096-.407-.133a2.68 2.68 0 0 0-.416-.134c-.152-.037-.366-.125-.474-.196s-.333-.197-.499-.28-.34-.184-.386-.223-.339-.2-.652-.356-.607-.344-.654-.415-.246-.225-.443-.34-.373-.26-.393-.323c-.064-.2-.636-.748-.986-.945-.186-.104-.413-.269-.505-.365a1.23 1.23 0 0 0-.333-.245c-.092-.039-.336-.199-.544-.356s-.427-.286-.487-.286-.258-.075-.439-.166-.378-.166-.436-.166c-.109 0-.731-.267-1.283-.55a3.34 3.34 0 0 0-.61-.23c-.192-.047-.382-.142-.513-.257-.114-.101-.23-.183-.256-.183-.086 0-.478-.34-.52-.451-.05-.132-.361-.27-.612-.27-.127 0-.306-.08-.57-.255-.419-.277-.731-.41-.965-.41-.092 0-.208-.061-.302-.16-.084-.088-.32-.227-.523-.309l-.786-.361a9.96 9.96 0 0 0-.582-.287c-.275-.128-.526-.269-.559-.314-.058-.078-.346-.291-.966-.712-.368-.25-.777-.628-.777-.718 0-.036-.156-.205-.347-.375-.212-.19-.311-.311-.255-.311.051-.001.16.079.242.177s.178.183.213.19c.364.072.846.257 1.039.399.131.097.29.176.352.177a.65.65 0 0 1 .253.081c.076.044.196.08.266.081s.207.044.305.095a3.85 3.85 0 0 0 .954.269c.316.041.778.151 1.082.258.168.059.405.118.527.131l.527.083c1.209.235 1.692.294 2.011.245.397-.061 1.229-.048 1.359.022.105.056.236.391.236.603 0 .173.037.198 1.498 1.009.442.246.857.447.921.447.239.001.501.136.743.383.173.177.326.275.499.32.575.15.764.222 1.051.398l.302.186 1.113.014c1.088.013 1.119.017 1.41.164.258.131.318.142.455.086.175-.072 1.006-.025 1.179.067.11.058.875.124 1.231.106.146-.007.345.044.582.152.555.251.723.288 1.168.262l1.078-.061c.396-.022.801-.079.999-.141.353-.11.693-.138.693-.056 0 .027.231-.024.513-.114l.7-.221c.113-.035.369-.043.646-.02.308.026.471.019.496-.022.02-.033.1-.06.178-.06s.212-.05.298-.112c.226-.161.72-.251.946-.172.219.076.565.081.637.009.029-.029.203-.069.386-.089.435-.046 1.03-.254 1.591-.557.249-.134.483-.244.52-.244s.198-.087.357-.194.43-.234.602-.282l.675-.216a9.77 9.77 0 0 1 .749-.223c.465-.114.753-.265.908-.474.063-.085.252-.246.419-.357.365-.242.583-.53.98-1.296l.299-.576v-.746-.746l-.166-.133a.64.64 0 0 0-.328-.133c-.089 0-.208-.042-.264-.092-.089-.08-.114-.082-.199-.012-.053.044-.222.14-.374.214-.159.077-.384.257-.527.422-.265.305-.489.422-.998.524-.404.081-.694.193-1.003.39a1.8 1.8 0 0 1-.288.162c-.018 0-.051-.118-.073-.263-.028-.188-.086-.306-.203-.416-.2-.187-.214-.188-.419-.015-.126.106-.228.139-.43.139-.146 0-.347.029-.447.066-.143.052-.214.05-.337-.007-.135-.063-.731-.163-1.031-.172-.055-.002-.228.104-.384.236-.187.157-.377.26-.554.301-.29.067-.403.013-.198-.095a2.4 2.4 0 0 0 .329-.238l.35-.274c.163-.113.356-.501.501-1.007l.145-.46c.109-.281.027-1.343-.123-1.591a1.01 1.01 0 0 1-.07-.208c-.024-.098-.073-.152-.139-.152-.056 0-.17-.053-.253-.119-.138-.109-.175-.113-.437-.055-.314.07-1.135.173-1.382.173-.11 0-.169-.036-.203-.125-.026-.069-.1-.172-.165-.23s-.117-.143-.117-.188c0-.104-.609-.933-.721-.982-.219-.095-1.411-.264-1.919-.271-.251-.004-.428-.034-.489-.085-.085-.07-.109-.063-.217.068-.067.081-.288.222-.491.314s-.386.192-.405.223-.094.057-.165.057c-.14 0-.363.306-.363.499 0 .057-.077.187-.17.288-.247.266-.424.593-.467.863-.021.13-.062.236-.091.236s-.091.094-.137.208l-.159.374a1.99 1.99 0 0 0-.115.388c-.058.324-.177.523-.314.526-.022 0-.068-.094-.103-.211-.052-.173-.046-.277.033-.568.069-.255.1-.611.109-1.251l.053-.958c.022-.035.037-.443.034-.907-.007-1.24-.044-1.119.494-1.609.297-.27.517-.427.596-.427.069 0 .126-.024.126-.054 0-.101.248-.217.582-.27.464-.075.942-.265 1.153-.458.098-.09.241-.176.317-.191a5.19 5.19 0 0 0 .721-.215l.444-.145c.137-.039.288-.104.336-.143.124-.103.554-.246.619-.206.139.086.783-.224 1.038-.5.074-.08.166-.145.204-.145.12 0 .867-.38 1.017-.516.288-.264.532-.371.845-.371.184 0 .38-.04.504-.103a1.86 1.86 0 0 1 .496-.142c.161-.021.319-.061.352-.088s.206-.056.385-.066c.313-.016.329-.024.387-.198.057-.169.468-.511.614-.512.031 0 .126-.075.213-.167s.201-.166.255-.166.145-.052.203-.116c.141-.155.725-.494.852-.494.056 0 .23-.041.387-.092.234-.076.367-.083.75-.041.63.069.888.004 1.017-.255.075-.151.189-.24.513-.4.229-.113.511-.233.627-.266s.303-.143.416-.244c.347-.311.643-.421 1.203-.449.153-.007.352-.04.444-.072l.406-.128c.132-.038.269-.111.305-.161s.128-.125.204-.165c.196-.104.774-.625.775-.7.001-.034.034-.09.075-.124.057-.048.099-.015.19.146.064.114.328.413.586.665.266.26.486.524.508.61.144.578.669 1.361 1.095 1.635.192.123.281.122.396-.006.186-.205.258-.676.22-1.435l-.035-.708-.269-.262c-.234-.228-.269-.29-.269-.487 0-.272-.041-.329-.616-.861-.166-.154-.389-.312-.495-.351a2.47 2.47 0 0 1-.276-.12c-.392-.226-.553-.29-.721-.284-.289.01-.521-.085-.658-.27-.184-.249-.378-.361-.479-.277-.066.055-.12.037-.291-.099-.115-.092-.265-.226-.333-.299l-.124-.133.138-.194c.155-.218 1.431-1.39 1.572-1.444.05-.019.295-.159.543-.31s.611-.332.804-.401c.25-.089.411-.192.557-.353.113-.125.22-.213.237-.196s.176-.046.353-.141c.802-.428.943-.592.994-1.151.029-.317.026-.324-.11-.324-.077 0-.171-.037-.209-.083-.095-.114-.259-.104-.444.028-.086.061-.24.126-.342.143a1.56 1.56 0 0 0-.296.081c-.233.103-1.157.386-1.269.388-.177.004-.619.129-.706.2-.042.034-.24.136-.44.226a3.12 3.12 0 0 0-.642.408l-.516.411a15.27 15.27 0 0 0-.828.684c-.38.333-.721.578-.952.685l-.883.377c-.031 0-.248.187-.481.416s-.445.416-.471.416-.11.069-.188.152c-.132.142-.181.154-.737.188-.623.038-.884.082-.996.171-.083.065-.157.021-.365-.216-.089-.102-.223-.2-.296-.218-.181-.045-.205-.182-.173-.984l.028-.683-.188-.297c-.103-.164-.189-.323-.19-.356-.005-.096-.595-.548-.843-.645l-.232-.091-.279.178-.432.271c-.126.077-.153.132-.153.317 0 .123-.03.279-.067.345s-.083.346-.102.62a15.36 15.36 0 0 1-.137 1.122l-.101.623-.199.035c-.109.019-.29.106-.401.193a5.79 5.79 0 0 1-.514.342c-.175.103-.682.548-1.156 1.015l-1.005.941c-.381.262-.457.303-.562.304-.239.001-.54.121-.568.226-.015.058-.044.107-.063.108-.218.007-.892.136-1.196.229-.344.105-.476.115-1.261.09-.483-.015-.984-.006-1.114.02l-.68.108-.65.089c-.113.016-.235.064-.27.107-.08.096-.218.102-.215.008.001-.038.038-.117.082-.175s.119-.245.166-.416.172-.485.277-.698c.248-.505.563-1.331.607-1.591.019-.113.004-.368-.032-.568-.054-.293-.053-.389.006-.499.045-.083.062-.233.044-.388-.023-.205.001-.306.129-.544.137-.254.158-.354.16-.763.003-.672-.116-.888-.577-1.043-.185-.062-.51-.129-.722-.148s-.412-.056-.444-.081-.158-.059-.28-.074c-.24-.03-.921-.159-1.572-.298-.49-.104-1.675-.061-1.879.069-.068.043-.175.078-.239.078-.157 0-.387.126-.55.3-.074.079-.183.144-.242.144s-.288.112-.508.249-.448.25-.507.251c-.115.002-.593.161-.772.257-.285.153-1.297.181-1.511.042-.068-.044-.354-.182-.636-.305s-.625-.301-.762-.394-.3-.174-.362-.181-.225-.071-.362-.142a2.92 2.92 0 0 0-.666-.204l-1.113-.241c-.055-.029-.183-.053-.284-.053s-.271-.027-.378-.061-.369-.082-.582-.108l-.61-.08c-.356-.054-.371-.054-.761-.006-.468.057-.537.128-.428.435.14.396.249.438 1.292.49.542.027 1.05.083 1.24.137l.571.137c.264.049.638.166 1.498.47l.735.256c.114.039.208.09.208.114 0 .048-.186.062-.231.017-.031-.031-1.188-.099-1.506-.088-.37.013-1.04-.153-1.146-.284a.4.4 0 0 0-.229-.132c-.073-.008-.267-.063-.429-.122-.237-.087-.342-.099-.527-.057a2.19 2.19 0 0 1-.496.038c-.257-.014-.268-.007-.381.205-.064.12-.15.258-.193.306s-.077.112-.077.142c0 .089.288.332.555.467.221.112.32.125.865.114.495-.01.674.01.915.097a3.31 3.31 0 0 0 .66.146c.198.02.485.075.638.123s.452.106.666.13.563.098.777.163.447.117.519.115.241.088.391.213c.143.12.396.278.562.351.227.1.359.209.527.434.191.255.413.657.413.746 0 .051-.327.024-.361-.03-.019-.031-.093-.056-.164-.056s-.306-.075-.521-.166l-.446-.166c-.03 0-.178-.077-.328-.17-.251-.156-.492-.231-1.259-.394a5.2 5.2 0 0 1-.512-.14c-.401-.139-1.11.028-1.459.344a3.83 3.83 0 0 1-.952.47c-.052 0-.128.049-.171.11-.122.175-.558.499-.671.5s-.239.101-.628.487c-.29.287-.325.542-.103.764.24.24.432.189.913-.24l.566-.468c.08-.05.179-.125.222-.166.132-.127.395-.322.436-.322.102 0 .639 1.008.573 1.074-.016.016-.1.015-.186-.002s-.414-.002-.728.034c-.529.061-.587.079-.766.248-.275.259-.848.542-1.246.617-.161.03-.204.075-.31.321-.067.157-.182.356-.254.442-.183.218-.177.467.012.515.178.045.392-.103.537-.371s.3-.384.501-.384c.099 0 .323-.091.536-.217.201-.119.465-.235.586-.256a1.14 1.14 0 0 0 .404-.176c.175-.131.211-.136.821-.113.376.014.664.05.701.088a.31.31 0 0 0 .19.064c.07 0 .265.075.434.166s.358.166.419.166.229.059.373.131c.162.081.419.146.674.171.379.036.851.197.923.315.017.027.152.049.301.049s.283.02.298.044c.029.046 1.183.095 2.087.087.513-.004.959-.066 1.1-.153.038-.024.299-.065.581-.091l1.399-.197c.061-.013.178-.08.26-.148.127-.106.152-.178.175-.499.029-.409.065-.334-.48-1.011-.074-.091-.185-.282-.247-.424-.082-.187-.38-.523-1.089-1.23l-1.088-1.008c-.061-.019-.152-.112-.2-.207-.143-.277-.577-.708-.713-.708-.157 0-.562-.345-.507-.433.022-.036.113-.066.202-.066.242 0 1.486-.577 2.073-.962.079-.051.212-.09.296-.085s.302-.044.484-.11c.38-.137 1.287-.171 1.405-.053.037.037.21.069.386.073s.378.038.451.078c.086.047.234.06.424.04.219-.024.309-.012.36.049.041.049.117.069.194.049.122-.031.36.111.36.214 0 .025-.102.143-.228.262-.218.207-.226.227-.189.455.022.131.044.401.05.599s.04.413.075.478c.088.16.353.26.622.234.123-.012.224-.004.224.018s-.042.21-.092.417a4.45 4.45 0 0 0-.106.738c-.021.562-.064.862-.149 1.034-.043.087-.139.364-.212.615a1.97 1.97 0 0 1-.414.803c-.154.191-.337.375-.407.41s-.206.135-.303.224c-.24.219-.461.367-.807.543-.235.119-.314.196-.4.39-.109.247-.095.418.035.418.04 0 .088.047.106.104.024.076.104.112.294.133.211.024.305.004.493-.106.128-.075.262-.172.299-.216s.139-.081.227-.081.291-.073.451-.161.378-.178.485-.2a1.89 1.89 0 0 0 .437-.172c.133-.073.301-.133.373-.133s.233-.041.358-.091c.176-.071.323-.083.658-.055.321.027.493.014.672-.049.187-.066.367-.077.803-.049.408.026.598.017.693-.034.132-.07.543-.173 1.11-.277l.416-.083.471-.113.61-.165.393-.108c.097-.019.222-.141.385-.373.292-.417 1.868-1.978 2.091-2.072a.67.67 0 0 0 .255-.213c.056-.086.147-.146.221-.146.208 0 .283.377.292 1.469.01 1.185.074 1.491.349 1.671.081.053.284.225.452.384s.389.331.491.382c.221.112.862.147 1.244.066.182-.038.283-.037.323.003.079.079-.214.188-.643.239-.615.073-1.277.383-1.388.648-.063.151-.108.184-.26.191l-.284.014a.27.27 0 0 0-.172.103c-.178.242-.486.423-.781.46-.233.029-.319.068-.389.174-.073.111-.119.13-.251.101-.187-.041-.688.2-.783.377-.075.14-.38.262-.658.262-.229 0-.554.128-.554.218 0 .055-.488.42-.761.57-.098.054-.285.114-.416.134s-.463.156-.737.303-.638.303-.808.347c-.547.142-.846.259-1.356.53-.275.146-.658.306-.853.355s-.417.131-.495.182a.77.77 0 0 1-.356.093c-.175 0-.229.027-.29.145-.042.08-.18.22-.308.311-.304.218-.768.683-.863.865-.054.104-.074.378-.072.97l-.06 2.739-.108.638c-.026.153-.076.347-.11.433-.103.254-.075.56.075.822.16.279.174.521.054.923-.08.267-.078.3.02.495.058.115.122.3.142.412s.077.236.126.276.145.162.214.269c.087.135.208.226.395.297l.487.193c.3.126.948.121 1.237-.01.219-.099.227-.099.466.022a2.15 2.15 0 0 1 .329.198c.094.082.429.157.691.154 1.203-.014 1.537-.041 1.707-.138.44-.253.803-.426.968-.461.098-.021.227-.104.285-.185.095-.13.122-.139.247-.082.138.063.342.028.606-.104a.84.84 0 0 1 .295-.048c.321 0 1.091-.26 1.352-.457.08-.06.226-.101.361-.1l.365-.003a7.5 7.5 0 0 1 .666.064c.765.098 1.31.073 1.479-.067.132-.11.186-.025.093.146-.05.091-.096.27-.102.397-.009.195.009.24.122.291.216.099.29.073.556-.193.231-.231.27-.25.454-.219.17.029.229.009.381-.126a1.31 1.31 0 0 1 .415-.231c.463-.139.552-.189.864-.485a1.66 1.66 0 0 1 .637-.409c.177-.06.346-.095.374-.077.095.059.056.559-.066.837-.065.149-.19.352-.277.453s-.159.215-.159.254-.201.245-.447.456c-.45.386-1.66 1.076-1.888 1.076-.106 0-.273.076-.439.201-.046.034-.146.075-.222.091-.359.076-1.968.743-2.061.854-.145.175-.584.246-.983.158-.155-.034-.186-.023-.212.078-.021.079-.061.108-.123.088-.196-.062-.544-.041-.807.049a2.01 2.01 0 0 1-.666.084c-.315-.008-.46.019-.748.14-.197.083-.509.174-.694.204a5.19 5.19 0 0 0-.586.131c-.592.183-.729.206-1.089.181-.392-.027-.804.065-1.19.264-.264.136-1.111.091-1.383-.074-.107-.065-.244-.119-.305-.119-.724-.01-.964-.029-1.081-.086a1.53 1.53 0 0 0-.319-.102c-.099-.019-.249-.082-.333-.141-.138-.097-.191-.101-.568-.047-.555.079-1.051.061-1.166-.043-.057-.052-.204-.082-.394-.082a9.6 9.6 0 0 1-.966-.093l-1.052-.1c-.308-.006-.44-.037-.638-.151a1.88 1.88 0 0 0-.44-.184c-.105-.022-.267-.086-.361-.143-.283-.172-.76-.382-.867-.382-.055 0-.146-.057-.201-.128-.158-.199-.527-.427-.693-.427-.101 0-.186-.051-.263-.159-.07-.098-.224-.198-.406-.263-.276-.099-.296-.118-.347-.349-.038-.17-.136-.335-.323-.539-.148-.162-.294-.386-.325-.498s-.162-.317-.292-.454l-.236-.249-.55-.015c-.463-.013-.577.002-.723.092-.095.059-.213.107-.261.107s-.115.05-.148.111-.116.111-.185.111-.149.022-.178.048c-.083.075-.549.174-.812.172-.271-.002-.797-.118-.977-.214-.066-.036-.202-.062-.301-.059-.282.009-.754-.09-1.179-.247-.213-.079-.476-.143-.583-.143a1.86 1.86 0 0 1-.498-.111c-.167-.061-.379-.111-.471-.112s-.273-.073-.402-.16-.408-.198-.622-.246-.482-.147-.597-.219a3.25 3.25 0 0 0-.487-.235c-.374-.139-.495-.221-.908-.608-.331-.312-.5-.428-1.117-.767-.137-.076-.349-.242-.471-.37a2.26 2.26 0 0 0-.633-.421 3.24 3.24 0 0 1-.646-.396 5.76 5.76 0 0 0-.63-.451c-.357-.221-.41-.278-.567-.61-.122-.259-.341-.547-.749-.989l-.576-.676c0-.029-.088-.148-.196-.264a2.35 2.35 0 0 1-.319-.461c-.068-.137-.143-.258-.166-.268-.075-.033-.207-.331-.207-.466 0-.083-.094-.22-.258-.376-.264-.251-.459-.595-.462-.812-.001-.066-.072-.179-.158-.249-.17-.14-.464-.613-.449-.725.022-.173-.016-.273-.175-.454-.102-.116-.166-.245-.158-.321.007-.07-.002-.164-.02-.21-.102-.26-.187-.843-.23-1.567-.015-.267-.055-.536-.088-.598-.078-.146-.06-.871.034-1.326.08-.39.05-1.172-.052-1.361-.033-.061-.061-.285-.062-.499-.002-.323-.025-.42-.141-.582-.121-.17-.137-.246-.128-.61.006-.229.036-.528.068-.665s.058-.342.059-.455c.001-.137.034-.223.098-.26.083-.047.094-.119.074-.516l-.028-.988c-.005-.491.004-.53.116-.58.152-.067.239-.253.241-.518a5.42 5.42 0 0 1 .088-.677c.138-.75.15-.945.083-1.33-.047-.269-.047-.411-.001-.555.106-.328.16-1.334.081-1.525a2.27 2.27 0 0 1-.106-.369.94.94 0 0 0-.15-.345c-.062-.078-.149-.324-.193-.546l-.176-.709c-.052-.168-.1-.367-.106-.444-.015-.179-.072-.442-.128-.582-.262-.659-.336-.889-.336-1.044 0-.1-.037-.231-.081-.29a.43.43 0 0 1-.083-.206c-.002-.131-.104-.306-.315-.54-.619-.686-.959-1.24-.914-1.487.019-.103-.31-.728-.477-.906-.078-.084-.121-.176-.098-.213s.016-.119-.013-.185l-.123-.313-.229-.638c-.088-.244-.16-.498-.161-.564s-.193-.477-.427-.914c-.354-.658-.43-.846-.448-1.1-.023-.328-.099-.587-.214-.723-.06-.071-.047-.135.075-.382a1.69 1.69 0 0 0 .168-.636c.012-.186.057-.417.1-.514s.079-.212.079-.256.062-.223.139-.395c.16-.362.176-.632.051-.874-.064-.123-.076-.226-.044-.371a1.25 1.25 0 0 0 .032-.312c-.023-.203-.293-.709-.508-.954-.135-.153-.223-.316-.242-.448l-.089-.511-.135-.898c.013-.021-.065-.108-.173-.194s-.195-.197-.195-.249-.065-.169-.144-.263-.126-.171-.104-.171.012-.034-.022-.074-.048-.089-.03-.106-.015-.046-.071-.064-.252-.211-.434-.428l-.534-.635c-.111-.131-.298-.43-.416-.663-.171-.339-.33-.538-.796-.997l-.713-.746c-.072-.095-.228-.222-.347-.283s-.216-.138-.216-.173-.247-.315-.548-.623-.586-.635-.633-.727-.174-.252-.284-.357c-.134-.129-.199-.241-.199-.344 0-.149-.343-.614-.685-.929-.08-.073-.198-.235-.263-.359-.119-.229-.355-.487-.402-.44-.014.014-.053-.058-.087-.16s-.179-.384-.323-.627-.266-.492-.271-.553L.53 34.2c-.061-.438-.074-.679-.037-.723.03-.036.06-.272.066-.523s.035-.472.065-.49.04-.182.019-.4l-.035-.367.337-.277c.337-.277.381-.303.692-.397.185-.056.456-.033.503.043zm6.909 3.289a5.47 5.47 0 0 0 .548.254c.44.172.888.481.888.614 0 .104-.009.105-.166.024-.091-.047-.25-.16-.354-.251s-.23-.165-.28-.165c-.096 0-.392-.139-.799-.375-.175-.101-.22-.152-.166-.186l.081-.048c.004 0 .116.06.25.134zm56.777 16.492c.088.049.313.333.445.563a3.92 3.92 0 0 1 .354 1.144c.001.087.051.382.112.657.163.739.202 1.369.091 1.462-.076.063-.128.039-.37-.167-.299-.256-.52-.593-.585-.891-.022-.1-.056-.194-.076-.209s-.093-.124-.161-.241c-.159-.275-.207-.745-.125-1.233.055-.326.052-.412-.018-.547-.074-.143-.075-.339-.002-.575.022-.07.173-.052.335.038zM63.85 66.951c0 .148-.493.483-1.387.943l-.86.486a6.42 6.42 0 0 1-.499.312c-.158.088-.6.478-1.026.907-.703.707-.767.757-1.045.818-.163.036-.321.05-.35.031s-.208.02-.397.086c-.761.264-.797.265-.613.018.061-.082.243-.217.404-.3s.334-.187.384-.232.217-.139.369-.211.465-.306.693-.522c.374-.353.624-.554.893-.718l.251-.161c.432-.286.569-.364.826-.465l.511-.173c.128-.035.303-.121.388-.192.137-.114.586-.344 1.181-.607.245-.108.277-.11.277-.019zM52.831 68.97c.134.262.167.7.068.892-.049.095-.088.305-.088.48v.311l-.291-.017-.291-.017-.012-.552c-.008-.372.016-.652.076-.859.114-.397.109-.391.298-.391.12 0 .182.039.24.153zm-19.753.737c.194.009.937.4 1.189.625a1.76 1.76 0 0 0 .228.171c.356.209.584.404.952.816l.889.99c.076.082.201.256.277.386s.322.427.546.661c.394.411.615.759.618.97.002.177-.134.066-.211-.171-.048-.148-.106-.228-.166-.227-.244.003-.55-.091-.675-.207-.076-.071-.226-.165-.333-.21s-.28-.159-.385-.253-.292-.198-.416-.231c-.25-.066-.409-.226-.616-.62-.077-.146-.225-.377-.329-.514a1.32 1.32 0 0 1-.224-.428c-.023-.124-.116-.249-.298-.4-.145-.122-.344-.327-.442-.457-.108-.143-.223-.236-.292-.236-.117 0-.73-.321-.944-.494-.191-.155-.085-.242.25-.205l.384.036zm26.632 1.603c.155.059.692.603.906.917.168.248.236.773.13 1.011-.157.351-.694.674-1.131.679-.184.002-.208-.011-.169-.095.025-.053.054-.256.066-.45.02-.323.003-.392-.205-.815-.282-.574-.29-.766-.047-1.069.194-.242.237-.259.45-.178zm-6.881.391l-.026.915c-.009.305.005.755.031.999.041.382.035.455-.043.52-.058.048-.09.161-.09.318 0 .281-.084.314-.243.096-.091-.125-.099-.195-.059-.539.083-.724.073-.994-.038-1.138-.087-.111-.103-.234-.103-.779 0-.737.026-.793.36-.769l.222.016-.01.36zm4.772.434l.151.157-.261.439c-.411.69-.445.722-.74.683-.353-.047-.55-.14-.604-.285-.037-.1.002-.199.193-.486.45-.677.436-.666.793-.666.277 0 .338.02.469.157zm-26.374.047c.22.144.288.24.17.24a1.07 1.07 0 0 1-.52-.27c-.104-.117-.104-.119.009-.119.063 0 .217.067.341.148zm23.547.263c.14.259.098.348-.092.199-.09-.071-.151-.173-.151-.254 0-.194.124-.166.243.055zm7.941.2c.356.172.67.461.708.651.017.084.095.247.173.363s.143.256.143.311.05.164.11.241c.195.248.294 1.026.136 1.078-.074.024-.302-.375-.302-.529 0-.063-.064-.229-.141-.368s-.126-.277-.108-.307-.024-.077-.095-.105c-.164-.065-.688-.606-.733-.758-.019-.064-.196-.247-.394-.408-.456-.37-.472-.463-.064-.368a3.26 3.26 0 0 1 .566.2zm-32.891.132c.121.104.28.197.353.208.116.017.092.045-.19.228-.268.174-.337.197-.407.139-.111-.092-.286-.48-.288-.638-.002-.197.265-.165.532.064zm28.64-.009c.026.069.065.281.087.473.059.507-.068.603-.589.447-.232-.069-.24-.092-.14-.368.067-.185.466-.676.549-.676.025 0 .066.056.092.125zm-4.206.376c.184.093.347.204.364.247s-.066.17-.204.301c-.183.174-.255.211-.331.171-.196-.105-.287-.443-.228-.846.009-.064.04-.054.398.127zm-22.508.462c.396.186.4.187.897.137.63-.063.784-.034.997.189.154.162.263.238.678.473.142.081.351.009.351-.121 0-.04.051-.119.114-.176.098-.089.122-.092.166-.022.028.044.052.108.052.142s.074.162.164.286c.178.246.173.265-.1.379-.239.1-.496.099-.796-.002a1.63 1.63 0 0 0-.432-.08c-.335.002-.888-.073-.919-.124-.017-.027-.091-.049-.165-.049s-.3-.078-.501-.173c-.268-.127-.382-.156-.427-.111-.094.094-.233.074-.345-.049-.056-.062-.171-.111-.261-.111-.17 0-.428-.114-.648-.285-.073-.057-.181-.103-.24-.103s-.099-.029-.087-.064c.029-.086.483-.216.629-.18.068.017.146-.007.188-.058.106-.128.244-.108.687.1zm-17.178-.039c-.068.067-.038.185.046.185.046 0 .083-.049.083-.111 0-.11-.059-.144-.129-.074zM55.268 74c-.131.18-.212.181-.095.002.05-.076.114-.139.143-.139s.007.062-.048.137zm2.689.171c.148.03.17.052.118.115-.035.043-.167.123-.293.18s-.276.156-.334.221-.158.119-.222.12-.244.06-.4.133c-.318.148-.584.217-.813.211-.104-.003-.182.039-.242.131-.099.151-.353.189-.353.052 0-.143.383-.517.572-.558a1.43 1.43 0 0 0 .651-.336c.303-.283.775-.379 1.316-.268zm-2.983.55c0 .076-.7.364-1.007.414-.434.07-.436.07-.436.004 0-.03.069-.071.153-.092s.265-.087.402-.147c.338-.149.888-.259.888-.178zM6.393 76.095c.013.038.07.078.128.09.09.017.095.008.03-.069-.088-.106-.191-.119-.158-.02zm38.922 7.967c.054.029.283.057.509.063l.481.037c.122.045.63.735.711.965.077.219.158.334.57.809.191.22.222.235.492.236.159 0 .349-.027.422-.06.09-.041.291-.046.624-.014.477.046.493.052.597.229.095.163.1.224.048.574-.061.41-.16.599-.592 1.122-.122.148-.279.291-.347.317-.083.032-.125.094-.125.184 0 .149-.082.234-.139.144-.019-.031-.007-.296.028-.588l.063-.531-.154-.222c-.142-.205-.169-.219-.351-.19l-.432.067c-.282.043-.316.079-.538.591-.182.419-.208.716-.09 1.052.032.093.059.314.059.492 0 .308-.007.325-.153.355l-.347.082c-.107.028-.359.066-.561.084-.306.028-.399.015-.567-.079-.117-.065-.214-.09-.233-.059-.057.093-.489.057-.619-.051-.108-.09-.12-.151-.114-.566.01-.631-.066-1.326-.161-1.478-.117-.187-.492-.402-.703-.402s-.351.126-.512.444a3.32 3.32 0 0 0-.28.995c-.014.135-.036.257-.05.271-.052.052-.36-.119-.443-.245-.048-.073-.132-.133-.186-.133-.125 0-.232-.105-.232-.228 0-.052.098-.173.218-.267.273-.216.781-.895.781-1.044 0-.126.146-.465.297-.69.059-.088.087-.194.066-.259-.049-.154.218-.942.424-1.253s.766-.692.766-.521c0 .033.044.008.097-.054s.184-.138.291-.167c.259-.071.27-.071.382-.011zm2.589 4.564c-.053.404-.168.506-.227.202-.036-.186.076-.493.179-.493.072 0 .08.049.048.291zm.634 10.466c0 .031.048.055.108.055s.123-.025.142-.055-.027-.055-.108-.055-.142.025-.142.055zm7.009 11.2c-.163.065-.215.164-.092.175.311.026.572-.057.572-.182 0-.061-.322-.057-.48.007zm.211 1.44c-.035.102-.038.178-.005.198s.052-.027.052-.099.03-.161.067-.197c.045-.045.047-.067.005-.067-.034 0-.087.075-.119.165zm-31.24 5.266c0 .096.098.114.167.03.057-.069.049-.082-.049-.082-.065 0-.118.023-.118.052zm69.382 3.779a5.65 5.65 0 0 0 .931.131c.244.008.656.057.915.109l.749.138c.153.024.352.075.444.113s.304.09.472.115.405.071.527.103.596.087 1.054.123l.885.113c.029.026.132.047.23.047.189 0 .552.1 1.133.312.199.073.407.132.461.132.143 0 1.153.558 1.349.746l.374.355a2.53 2.53 0 0 1 .431.6 1.72 1.72 0 0 0 .422.559c.28.23.621.854.734 1.344.038.168.152.48.252.693.221.472.303.719.303.91 0 .08.099.332.221.56s.221.476.221.55a1.38 1.38 0 0 0 .053.305l.17.586.174.582c.03.092.077.391.105.666a4.12 4.12 0 0 0 .131.73 3 3 0 0 1 .108.388c.014.086.065.257.114.379s.114.54.145.942c.078 1.018.139 1.48.21 1.608.034.061.102.343.151.626.072.414.081.677.045 1.331l-.037.927.244 2.328c.118.745.172 1.001.222 1.051.029.029.053.144.053.257a1.26 1.26 0 0 0 .084.404c.046.11.108.494.138.852.06.729.171 1.369.268 1.55a.61.61 0 0 1 .065.241c0 .165.35.889.493 1.018a.37.37 0 0 1 .117.226c0 .066.075.204.166.306s.167.207.167.232.084.139.186.253c.254.283.371.528.43.897l.102.642.137.711a7.51 7.51 0 0 1 .119.776c.023.267.097.546.224.844.104.246.189.525.189.622 0 .246.397 1.246.582 1.466a3.93 3.93 0 0 1 .559 1.198c.02.113.071.261.114.33s.062.125.043.125-.006.035.03.079c.071.086.09 1.378.022 1.488-.021.033-.043.15-.049.258s-.024.236-.04.282a5.15 5.15 0 0 0-.09.36c-.188.85-.59 2.007-.899 2.591a.47.47 0 0 0-.051.179c0 .144-.333.474-.479.474-.074 0-.258.062-.408.138s-.326.139-.39.139a.58.58 0 0 0-.238.068 2.31 2.31 0 0 1-.793.207 2.4 2.4 0 0 0-.823.289c-.029.025-.104.046-.167.046s-.292.164-.52.374c-.578.534-.717.642-1.091.844l-.577.313c-.134.073-.275.132-.312.132s-.111.064-.162.142-.134.134-.192.125-.134.009-.177.042c-.077.059-.374.154-.683.218-.088.019-.228.106-.31.194a.76.76 0 0 1-.311.198.71.71 0 0 0-.244.109c-.046.038-.245.146-.444.24l-.943.475c-.32.168-.637.307-.703.307s-.266.074-.444.163c-.445.222-.987.449-1.075.449-.04 0-.174.047-.298.106s-.325.121-.447.14c-.651.103-.625.103-.691-.021-.035-.065-.088-.102-.117-.084s-.129.043-.219.054c-.143.018-.176-.003-.243-.165-.043-.102-.13-.203-.194-.223s-.116-.06-.116-.088-.066-.052-.146-.052c-.166 0-.69-.504-.828-.798-.171-.364-.421-.642-.703-.783-.353-.177-.738-.229-.786-.105-.052.134-.141.036-.119-.131a1.16 1.16 0 0 1 .107-.317c.086-.164.125-.333.26-1.137.038-.229.106-.488.149-.576.061-.124.076-.364.064-1.054-.011-.649.008-1.007.072-1.309.051-.244.067-.438.038-.469-.074-.079-.055-.373.034-.529.125-.219.099-.526-.075-.875-.301-.604-.324-.993-.092-1.534.073-.17.084-.285.049-.526a2.64 2.64 0 0 1-.035-.392l.031-.469c.013-.221.049-.394.085-.406.088-.029.08-.365-.014-.589-.044-.106-.058-.216-.032-.258s.02-.122-.012-.181-.063-.423-.069-.807-.038-.75-.071-.811-.077-.218-.099-.348-.112-.374-.201-.54-.161-.388-.161-.498c0-.234-.059-.348-.391-.748-.248-.3-.496-.671-.496-.743 0-.02.056-.022.125-.005.175.044.263-.024 1.56-1.203.234-.212.302-.319.382-.593a2.68 2.68 0 0 0 .098-.434c0-.055.05-.175.111-.266s.11-.235.111-.319.145-.409.322-.721c.375-.663.511-1.123.402-1.358-.101-.218-.184-.838-.199-1.49-.007-.308-.041-.614-.076-.679a.73.73 0 0 1-.06-.298c.006-.339-.101-.82-.236-1.055-.074-.129-.191-.447-.26-.706a7.14 7.14 0 0 0-.259-.783c-.073-.172-.134-.409-.135-.527-.002-.364-.31-1.171-.488-1.279-.109-.066-.157-.262-.194-.793-.01-.138-.046-.302-.08-.365s-.071-.176-.081-.249a.63.63 0 0 0-.057-.197c-.021-.034-.054-.246-.072-.471a5.95 5.95 0 0 0-.083-.631c-.065-.29-.065-.885.001-1.452.035-.305.033-.514-.006-.638a4.89 4.89 0 0 1-.104-.405c-.146-.71-.308-1.062-.693-1.511-.151-.176-.243-.236-.362-.236a.96.96 0 0 1-.287-.049c-.07-.027-.265-.078-.432-.113l-1.137-.292c-.41-.145-.691-.117-1.236.126a1.19 1.19 0 0 1-.349.106.72.72 0 0 0-.268.081.7.7 0 0 1-.261.078c-.058-.001-.323.037-.59.084-.704.123-1.669.139-1.799.029-.061-.051-.234-.09-.434-.099l-.638-.053c-.278-.036-.304-.051-.291-.17.008-.072-.009-.159-.037-.193s-.07-.225-.091-.423-.073-.399-.115-.447-.117-.26-.168-.471c-.053-.22-.146-.443-.219-.523-.114-.124-.127-.194-.129-.665-.001-.315.026-.574.066-.644.244-.424.317-.588.317-.714 0-.368.361-.822 1.435-1.802l1.227-1.235c.001-.087.368-.262.55-.262.115 0 .344-.085.582-.215.476-.259.78-.328.914-.207.081.073.135.075.4.013a2.35 2.35 0 0 0 .365-.107c.032-.02.27-.011.527.021.426.052.494.046.742-.058.235-.098.35-.111.813-.086a6.95 6.95 0 0 1 1.026.145zm-81.616 2.552c-.029.09-.02.107.038.072.063-.037.063-.03 0 .048-.091.112-.174.075-.174-.078 0-.061.025-.096.056-.077s.055.008.055-.024.014-.059.031-.059.015.053-.006.118zm58.675 1.409c-.06.13-.056.136.046.081.061-.033.111-.096.111-.14 0-.128-.087-.096-.157.059zm13.613 2.808c.073.23.069 1.154-.005 1.154-.151 0-.209-.182-.23-.722-.021-.52-.015-.553.087-.553.064 0 .125.051.148.121zm6.696 1.702c.221.057.562.107.76.11a2.39 2.39 0 0 1 .545.068c.102.034.235.049.295.033.086-.022.137.028.247.244.076.15.162.273.191.273s.142.193.251.429c.153.331.191.474.167.624-.017.107-.002.344.034.527a5.31 5.31 0 0 1 .076.721c.006.213.027.425.047.471s.044.295.053.554c.016.436.092.83.377 1.954.06.235.207.628.328.872l.22.466c0 .012.055.143.122.292s.115.303.107.344.028.216.081.388l.41 1.201c.024.031.06.143.08.25l.141.61c.287 1.139.333 1.426.342 2.107.01.797-.061 1.434-.193 1.731-.051.113-.092.266-.092.34s-.088.256-.195.404-.245.382-.305.519l-.189.388c-.043.076-.11.301-.149.499-.065.329-.106.399-.475.81-.384.428-.419.453-.739.521-.185.039-.344.061-.353.049-.068-.088-.258-.567-.258-.65 0-.144-.255-.614-.442-.813-.086-.092-.207-.268-.269-.392s-.152-.258-.2-.298-.087-.107-.087-.15-.064-.179-.143-.304-.176-.319-.216-.432a4.87 4.87 0 0 0-.245-.528c-.095-.178-.173-.358-.173-.399s-.019-.075-.043-.075-.121-.131-.217-.291-.239-.352-.318-.426-.143-.19-.143-.258c0-.112-.255-.677-.336-.744-.018-.015-.161-.265-.318-.555s-.342-.59-.412-.668-.152-.182-.183-.231l-.266-.399c-.116-.17-.237-.384-.269-.476s-.079-.166-.104-.166c-.065 0-.277-.309-.303-.439-.011-.06-.051-.166-.087-.237a5.62 5.62 0 0 0-.58-.795c-.038-.031-.149-.249-.247-.485s-.197-.429-.22-.429c-.047 0-.337-.552-.337-.641 0-.032-.085-.2-.189-.373s-.221-.408-.258-.523c-.066-.2-.722-1.468-.941-1.819-.075-.119-.114-.317-.137-.678-.018-.281-.071-.604-.119-.718-.1-.24-.072-.652.067-.985.048-.115.097-.372.108-.571s.042-.382.068-.408c.068-.068.333-.074 1.263-.027.699.035.943.024 1.526-.067l.96-.115c.273-.007.953-.173 1.132-.277.144-.083.3-.074.753.043zm-18.71 2.419c0 .093.01.097.134.049s.109-.132-.023-.132c-.062 0-.111.037-.111.083zm-57.581 4.241c-.065.04-.068.066-.015.119.081.081.143.036.116-.085-.013-.061-.043-.071-.101-.034zm.109.362c-.039.047-.055.1-.036.119.04.04.203-.084.203-.155 0-.076-.09-.057-.168.036zm61.15 2.444c.098.049.334.242.524.428.325.318.347.355.347.593 0 .394-.257 1.008-.522 1.247-.034.03-.26.288-.502.573-.421.496-.649.692-1.09.94-.35.196-.404.222-.673.316-.241.085-.279.125-.452.469-.236.471-.491.806-.98 1.29-.211.209-.384.412-.384.45 0 .093-.376.456-.423.409-.02-.02-.009-.18.024-.356.091-.486.145-.965.132-1.174-.007-.103.014-.219.046-.257.097-.116.332-.759.333-.91.001-.078.052-.255.115-.392.2-.438.328-.849.328-1.053 0-.129.038-.23.111-.292.066-.057.111-.164.111-.265 0-.107.048-.214.133-.292a1.63 1.63 0 0 0 .26-.372c.07-.137.16-.269.201-.293s.145-.171.233-.325a2.21 2.21 0 0 1 .428-.502c.242-.2.291-.218.496-.19.125.017.251.009.278-.019s.175-.059.328-.071l.35-.031c.04-.005.152.03.25.079zm-60.427.334c0 .123.013.135.083.076.046-.038.083-.103.083-.145s-.037-.076-.083-.076c-.053 0-.083.053-.083.145zm70.465 1.283c-.145.024-.163.097-.037.146.133.051.175.041.209-.048.038-.099-.008-.125-.172-.098zm-70.781.667c-.043.027-.049.071-.016.123.028.045.036.138.019.207-.025.099-.008.125.082.125.139 0 .166-.04.198-.297.022-.178.011-.202-.096-.201-.066 0-.151.02-.187.043zm-.22 1.763c-.04.103.059.217.143.164s.074-.18-.025-.217c-.049-.019-.099.003-.118.053zm-.301.647a2.75 2.75 0 0 0-.019.221c-.012.195-.003.208.144.208s.158-.015.158-.221c0-.2-.014-.222-.139-.222-.076 0-.141.006-.144.014zm35.522 6.68l.386.402c.112.107.31.403.44.656s.289.503.354.555c.226.177.41.573.494 1.065.019.108.171.464.339.79s.305.646.305.708c0 .155.126.386.301.549.206.192.313.43.34.751.021.253.108.611.256 1.054.031.091.064.247.074.345s.082.286.16.416c.252.419.357.675.385.93a2.68 2.68 0 0 0 .09.444c.035.106.078.543.097.97l.034.776.327.665.61 1.414c.245.646.287.816.309 1.253l.026.505-.471.029c-.287.018-.522.064-.603.116-.073.048-.308.136-.521.196l-.625.198c-.183.068-.26.073-.338.024s-.135-.039-.277.066c-.096.071-.175.149-.175.173 0 .084-.418.255-.721.295-.198.026-.354.084-.444.166a.87.87 0 0 1-.207.147c-.088.027-.887.747-1.068.963-.113.135-2.096 2.105-2.674 2.658-.082.078-.199.142-.26.142s-.127.025-.146.056c-.099.159-.856-.06-1.214-.352-.125-.102-.281-.213-.345-.247s-.205-.144-.312-.245l-.355-.302-.515-.402c-.224-.178-.41-.282-.502-.282-.08 0-.17-.022-.199-.048s-.39-.09-.802-.143-.824-.128-.915-.168c-.476-.206-.851-.267-1.453-.238-.555.027-.635.046-1.092.258-.271.125-.572.228-.668.228s-.199.022-.228.049-.259.138-.511.246c-.52.222-1.156.621-1.484.929-.357.336-.82.661-.942.662-.062 0-.312.099-.556.221s-.513.221-.598.221a1.06 1.06 0 0 0-.372.112c-.267.136-.892.156-.995.031-.053-.063-.026-.123.14-.306a2.07 2.07 0 0 1 .367-.323c.128-.075.547-.54.886-.983.023-.03.215-.392.425-.804l.639-1.127c.141-.208.256-.408.257-.443 0-.124.32-.741.521-1.004.111-.146.327-.497.48-.781s.316-.547.362-.585.149-.208.229-.377a3.94 3.94 0 0 1 .36-.587c.276-.361 1.32-2.469 1.32-2.666 0-.04.058-.143.129-.229s.172-.322.226-.523.15-.451.214-.555a12.02 12.02 0 0 0 .321-.576l1.163-2.052.471-.859c.022-.076.097-.201.165-.277s.231-.32.361-.541.258-.402.285-.402c.075 0 .327.556.327.721 0 .362.591 1.765.9 2.136.076.091.17.227.209.303s.187.282.327.458c.244.304.267.318.505.316.337-.003.63-.168 1.115-.631.441-.421.905-1.176.963-1.57a5.96 5.96 0 0 1 .228-.762c.176-.492.196-.608.197-1.119.001-.314.025-.586.054-.604.079-.049.406-.723.549-1.133.212-.606.638-1.399.868-1.615a3.62 3.62 0 0 0 .388-.447l.174-.246.477-.01.477-.01.181.206zm20.395 15.813c-.013.189.018.367.075.42.039.037.049.037.028 0-.017-.031-.012-.158.01-.282.031-.172.024-.226-.033-.226-.041 0-.077.039-.08.088zm23.399.462a1.2 1.2 0 0 1 .234.38.78.78 0 0 0 .159.286c.364.329.453.432.592.678l.343.568c.103.159.187.334.188.388a1.35 1.35 0 0 0 .327.649c.067.06.242.347.39.638l.629 1.146.402.749c.022.072.063.16.091.195a.51.51 0 0 1 .074.185c.013.066.125.281.25.478s.213.381.196.408.032.188.109.355.14.34.14.383.019.096.042.119.045.065.049.092.012.058.018.065a.87.87 0 0 1 .035.153 1.95 1.95 0 0 0 .075.277c.043.118.122.943.125 1.303a1.21 1.21 0 0 0 .071.305c.141.39.191.591.25 1.026.167 1.222.16 2.277-.017 2.617-.051.097-.093.235-.093.305 0 .231-.531.951-.968 1.312l-.267.22-.59-.003c-.424-.003-.636.02-.755.08-.194.099-.889.243-1.247.258a1.83 1.83 0 0 1-.582-.109l-.674-.24c-.187-.066-.382-.154-.433-.196s-.228-.078-.408-.081c-.234-.004-.335-.03-.389-.103-.04-.054-.095-.084-.121-.068s-.085-.024-.13-.088-.109-.102-.141-.082-.115-.001-.185-.046a1.19 1.19 0 0 0-.348-.121 2.2 2.2 0 0 1-.563-.25c-.338-.207-1.026-.513-1.297-.578-.077-.018-.351-.043-.61-.055-.573-.027-.641-.038-.886-.146-.107-.048-.331-.12-.499-.161s-.368-.117-.444-.168-.226-.107-.333-.124-.332-.072-.499-.123-.348-.093-.401-.091-.11-.021-.128-.05-.095-.052-.171-.052c-.144 0-.358-.091-.413-.176-.018-.027-.105-.06-.194-.074s-.299-.063-.466-.11-.421-.083-.566-.083c-.266 0-.658-.088-1.086-.243-.356-.128-1.338-.083-1.593.075-.132.081-.2.097-.227.053s-.052-.043-.074-.009c-.019.029-.209.091-.423.137s-.526.139-.693.207-.375.121-.461.117-.21.031-.276.077c-.136.096-.405.113-.456.029-.019-.03-.109-.055-.2-.055-.185 0-.209-.016-.668-.444-.18-.168-.337-.359-.35-.426s-.049-.171-.082-.232c-.075-.14-.078-.506-.004-.506.031 0 .056-.074.056-.165 0-.253.151-.509.426-.722a3.02 3.02 0 0 0 .44-.44 5.4 5.4 0 0 1 .524-.547c.183-.166.372-.376.419-.467s.335-.405.641-.698c.442-.424.619-.555.869-.646.529-.191.983-.533 1.453-1.095.107-.127.329-.28.587-.402l.446-.197c.017 0 .126-.075.242-.166s.232-.166.258-.166.16-.113.297-.252.391-.324.564-.414.331-.19.351-.221.16-.121.311-.198.427-.257.612-.4l.456-.345c.066-.046.128-.102.138-.125s.069-.041.131-.041.204-.076.314-.168l.88-.754c.14-.125.345-.275.454-.332l.383-.227c.195-.129.388-.165 1.077-.203.313-.016.485-.056.638-.146s.328-.13.681-.15c.431-.025.501-.046.805-.241a7.63 7.63 0 0 1 .694-.386c.547-.261.589-.291.84-.6.276-.339.4-.36.64-.106zm-63.138 4.035c.019.031.115.051.213.045.373-.025.373.145.001.602-.388.476-1.582 1.615-1.765 1.683-.094.035-.258.108-.364.163s-.256.117-.333.139-.177.074-.223.115c-.276.241-.273-.436.003-.693.084-.079.171-.23.193-.337a2 2 0 0 1 .509-1.038c.44-.503.821-.675 1.609-.728.067-.004.137.018.157.049zm34.587 15.112a13.35 13.35 0 0 1 .577.544c.378.368.639.675.758.893.221.404.707 1.081.778 1.081.129 0 .032.207-.14.3-.105.056-.204.137-.22.179s-.074.076-.128.077-.201.059-.326.13c-.332.19-.505.207-.825.079a2.04 2.04 0 0 0-.373-.12c-.107-.008-.488-.43-.489-.542 0-.041-.077-.225-.171-.407-.213-.416-.293-.84-.297-1.567l-.003-.568h.17c.093 0 .217-.035.274-.076.071-.052.154-.063.26-.032.086.025.156.037.156.029zm9.378 1.012c.074.061.109.13.085.169a1.17 1.17 0 0 1-.638.339c-.09 0-.18.025-.198.056-.056.091-.139.063-.139-.048 0-.057.108-.219.24-.36.266-.285.439-.327.651-.156zm-4.539.314c.479.456.49.749.029.749-.122 0-.319.029-.437.064s-.233.047-.255.025c-.064-.065-.116-.881-.064-1.018.035-.095.09-.124.228-.123.143.001.249.064.499.303zm2.581 1.484c.08.165.12.429.065.429-.024 0-.062-.056-.084-.124s-.078-.152-.124-.186-.069-.101-.049-.153c.049-.126.12-.114.191.034zm-49.392 4.398c.053.137.04.19-.045.19s-.14-.104-.101-.208c.035-.096.106-.087.146.018zm-3.939.259c.108.069.197.156.198.194s.037.069.079.069c.105 0 .203.129.156.204-.051.081-.744.406-.864.406-.052 0-.352.088-.668.194s-.632.195-.702.195h-.127l.121-.114c.067-.062.121-.144.121-.182 0-.187 1.116-1.071 1.369-1.084.067-.004.209.049.317.118zm-9.383 1.276c.053.13.097.286.097.347s.038.181.083.269c.117.224.11.479-.014.478s-.67-.221-.865-.349c-.179-.118-.19-.292-.037-.592.13-.254.303-.389.498-.389.113 0 .159.046.237.236zm4.181.322l.059.251c.026.108-.006.121-.435.173-.254.031-.486.035-.514.01-.094-.085.069-.319.312-.449.439-.233.52-.231.577.015z" fill="#000"/><path d="M32.013 24.267c4.401.092 8.287 1.385 12.635 1.385 2.065 0 4.236-.072 6.039 1.154.804.547.365-1.265.365-2v-4V10.44 8.152s-.302 1.856-.519 2.769c-.584 2.451-2.007 5.141-3.808 6.942-1.288 1.288-1.212-.645-1.558-1.942-.466-1.75-1.163-3.68-1.365-5.5-.369-3.324-1.14-6.205-2.365-9.269-.407-1.018-.445 3.402-.577 4.039-.466 2.253-1.06 4.889-2.096 6.962-.227.453-.806 1.253-.865 1.731-.239 1.911-2.853-3.173-3.038-3.885-.38-1.457-1.07-2.837-2.327-3.712-.421-.293-2.643-1.52-3.135-1.173-.718.507 2.894 7.513 2.961 9.039.116 2.609.963 5.243 1.038 7.885.031 1.081-.046 1.735-1.038 2.231" stroke="#dbd543" stroke-width="2" stroke-linecap="round"/></svg>