<svg viewBox="0 0 412 110" fill="none" xmlns="http://www.w3.org/2000/svg">
<path d="M73.819 13.8035C96.4152 10.3358 118.673 7.8338 141.699 7.91261C155.86 7.96108 169.954 9.6726 184.035 10.7318C192.161 11.343 200.694 11.3528 208.723 12.6674C215.492 13.7757 192.334 16.3597 216.517 13.551C240.979 10.7101 265.366 7.23559 290.028 5.80873C295.535 5.49013 311.926 6.29791 306.571 5.17756C303.455 4.52565 300.197 5.85064 297.017 6.2295C270.85 9.34723 273.432 9.10286 242.563 12.6674C223.566 14.861 203.492 17.1606 184.337 19.1474C180.386 19.5572 176.438 20.005 172.471 20.2835C170.8 20.4007 167.789 20.8296 167.543 19.4419C167.08 16.8279 172.73 15.3251 174.683 14.8134C176.14 14.4316 179.743 14.6704 179.007 13.551C178.617 12.9579 177.403 13.3293 176.594 13.3406C171.285 13.4153 151.989 14.5191 149.693 14.645C131.841 15.6247 114.004 16.9783 96.1439 17.843C94.6334 17.9161 90.1497 17.8521 91.6186 17.5484C105.573 14.6633 120.982 13.563 135.263 13.1303C151 12.6534 165.279 14.1132 179.611 19.5261C186.253 22.0347 182.166 20.6942 187.253 22.9764C191.628 24.9391 199.319 22.9899 202.991 22.6398C243.968 18.7344 285.268 14.252 326.532 13.3406C335.412 13.1445 334.638 12.9376 340.36 14.4767C341.791 14.8617 345.63 15.047 344.533 15.9074C343.276 16.8939 341.201 16.6588 339.505 16.9172C329.494 18.4431 317.323 19.9686 307.727 21.0409C287.02 23.3547 262.114 25.7818 241.457 27.4367C223.676 28.8611 204.55 30.9737 186.549 29.6247C165.06 28.0142 143.085 30.8407 121.687 32.4019C103.649 33.7178 86.0243 35.0984 67.9864 36.1047C66.4888 36.1882 44.4668 38.8198 40.734 35.8522C38.8514 34.3555 44.3223 32.4595 46.7677 31.7286C57.4238 28.5438 73.9618 26.2053 84.1769 25.2486C127.149 21.2243 171.549 22.0242 213.048 32.9909C216.331 33.8587 220.697 35.7788 224.462 35.6418C235.113 35.2543 245.434 32.4164 255.938 30.8871C309.681 23.062 365.09 16.2268 419.754 15.4866C422.362 15.4513 426.987 15.9762 421.262 16.244C395.497 17.4493 369.781 17.8805 344.03 19.6523C297.692 22.8406 251.446 27.7684 205.355 32.8226C183.265 35.2448 161.332 38.4076 139.285 40.9857C134.085 41.5938 138.522 40.2683 141.095 39.4709C152.49 35.9392 164.229 32.8569 176.091 30.6346C179.526 29.9911 189.907 28.5292 186.549 29.4143C167.947 34.3192 147.095 36.3122 128.022 39.2184C111.796 41.691 103.436 42.8535 88.0989 44.941C85.1507 45.3423 82.1951 45.7052 79.2494 46.1192C76.477 46.5088 71.7567 47.0858 77.8918 46.7924C106.909 45.4048 135.674 43.8244 164.778 44.8989C171.713 45.155 178.666 45.4194 185.544 46.2033C188.43 46.5323 192.117 46.3233 193.941 48.2231C194.992 49.3178 191.639 50.4187 190.069 50.916C183.058 53.1377 162.662 56.3649 156.28 57.2277C144.317 58.8451 107.96 60.0048 120.078 60.0048C155.109 60.0048 190.149 59.2082 225.165 60.4677C232.644 60.7367 240.393 61.645 247.44 62.4874C250.395 62.8407 253.265 61.3915 256.189 60.8885C284.136 56.0807 312.275 52.0541 340.209 47.2132C345.491 46.2978 350.979 45.8174 355.947 44.0574C356.82 43.748 354.911 42.5069 353.986 42.3322C344.478 40.5364 334.609 40.5538 324.923 39.6392C320.755 39.2456 312.424 38.4742 307.627 37.872C306.153 37.687 297.361 37.22 305.113 36.273C323.903 33.9774 343.421 33.6202 361.93 29.9613C380.134 26.3628 324.391 28.1197 305.816 29.9613C295.346 30.9994 283.776 32.7676 273.435 34.674C269.692 35.3642 265.98 36.1703 262.273 36.9883C259.878 37.517 257.087 37.4391 255.133 38.7135C254.142 39.3599 257.598 39.2417 258.854 39.2184C265.198 39.101 271.53 38.6636 277.86 38.2927C309.83 36.4197 341.749 33.9982 373.746 32.4439C377.95 32.2397 382.156 31.9643 386.367 31.9811C387.083 31.9839 385.015 32.4085 384.305 32.486C367.892 34.2776 351.385 35.4082 334.929 36.9042C291.619 40.8416 302.89 39.9095 262.675 43.8049C257.468 44.3093 242.235 46.6818 234.719 45.5301C230.25 44.8454 225.651 46.065 221.143 46.54C187.451 50.0898 203.407 48.6113 163.621 52.5992C151.409 53.8233 108.716 57.9906 94.8366 59.0791C89.1 59.529 83.3512 60.1207 77.5901 60.0469C76.6359 60.0347 74.3727 59.3166 75.1263 58.8267C77.6799 57.1664 81.0982 56.7458 84.1267 55.7971C87.6364 54.6975 91.258 53.8515 94.736 52.6833C96.1972 52.1925 99.5296 52.043 98.9093 50.8319C98.1985 49.4438 95.3338 50.3344 93.5293 50.327C88.5487 50.3063 83.5717 50.5672 78.5957 50.7477C63.3641 51.3003 53.4276 51.7847 38.1696 52.8516C29.4892 53.4586 14.7607 53.2237 5.93939 55.8812C1.11347 57.3351 16.1978 55.8159 21.3254 55.7129C38.4185 55.3696 60.3804 54.9045 77.1376 55.1238C85.0031 55.2268 111.462 55.6129 121.586 57.9851C123.323 58.3921 126.139 59.5719 125.609 61.0147C124.854 63.0671 121.562 63.7671 119.173 64.5492C114.329 66.1345 109.204 67.0535 104.139 68.0417C86.2408 71.5334 67.9459 73.3013 49.6338 74.2692C28.291 75.3972 92.3643 72.6757 113.742 72.2074C118.886 72.0947 124.034 71.9791 129.179 72.0811C131.118 72.1196 134.108 71.1701 134.961 72.6282C135.684 73.8638 131.923 73.7043 130.335 74.0588C126.383 74.9408 122.363 75.5948 118.368 76.331C112.564 77.4007 96.0097 80.2185 89.6073 81.8011C88.3709 82.1067 85.144 82.5446 86.1379 83.2318C87.6248 84.2596 89.9931 83.4618 91.9203 83.4001C96.1348 83.2652 100.335 82.9053 104.541 82.6427C119.791 81.6903 135.001 80.7136 150.297 80.4967C171.366 80.1979 192.721 76.5036 213.601 74.6479C235.962 72.6606 260.329 70.7364 282.788 69.0936C292.131 68.4102 301.556 66.2382 310.845 67.3264C317.441 68.0992 297.648 68.8548 291.034 69.5144C283.695 70.2463 276.353 70.9536 269.011 71.6604C262.073 72.3282 255.126 72.9306 248.194 73.638C245.505 73.9125 238.596 72.7484 240.149 74.6058C241.822 76.6055 245.983 74.5699 248.898 74.4796C256.392 74.2473 263.882 73.91 271.374 73.638C284.672 73.1552 298.216 72.6682 311.549 72.2915C314.267 72.2147 322.22 72.7162 319.694 71.8708C313.001 69.6302 304.619 69.1653 297.671 67.7471C293.17 66.8284 287.357 67.2792 284.397 64.2968C283.856 63.7522 285.681 63.265 286.509 63.1186C292.787 62.0079 310.615 61.4253 314.716 61.2672C326.788 60.8018 336.22 60.555 348.053 60.5098C351.807 60.4954 362.166 62.4704 359.316 60.4256C356.441 58.3639 349.485 58.0734 345.941 57.4802C345.541 57.4133 344.335 57.2428 344.734 57.3119C350.474 58.3038 356.15 59.3328 361.629 61.1409C370.296 64.0015 381.546 70.298 364.143 72.2915C352.116 73.6692 334.696 73.2388 323.164 72.9227C306.486 72.4656 289.334 71.8056 272.832 69.4303C269.777 68.9905 262.604 68.801 264.184 66.569C265.275 65.027 267.735 64.5167 269.715 63.8339C274.434 62.2066 279.313 60.9121 284.196 59.6682C297.303 56.3291 315.453 52.4939 328.745 49.822C335.857 48.3923 357.22 45.272 349.913 44.9831C325.55 44.0199 300.864 45.0902 276.503 45.6143C264.757 45.8669 229.705 47.4126 241.255 45.6143C250.483 44.1777 260.598 44.879 269.916 44.8569C274.977 44.8448 280.039 44.8227 285.101 44.8569C286.945 44.8693 288.789 44.8747 290.632 44.941C292.658 45.0139 297.462 44.7941 292.14 46.4137C265.153 54.6261 235.842 59.0379 207.869 64.1705C169.795 71.1563 212.555 63.4416 203.042 64.2968C178.955 66.4618 154.385 69.8451 130.838 74.5637C119.76 76.7837 118.49 77.7863 131.14 78.0141C156.966 78.4792 182.836 76.7874 208.673 76.9201C212.329 76.9389 215.99 77.0113 219.635 77.2567C220.385 77.3072 221.911 77.181 221.797 77.8037C221.672 78.4797 220.24 78.2393 219.433 78.3507C216.781 78.717 214.102 78.927 211.439 79.2344C200.7 80.4739 195.47 81.0954 184.488 82.6847C180.407 83.2754 176.301 83.7807 172.27 84.5782C163.73 86.2678 172.777 86.259 175.89 86.3455C197.664 86.9504 219.477 86.1862 241.255 86.6821C243.385 86.7306 247.826 86.9402 242.362 87.1029C223.218 87.673 204.039 87.6772 184.89 88.1128C164.679 88.5726 143.531 90.8267 123.296 90.0904C119.713 89.9601 130.311 88.8275 133.855 88.3652C165.147 84.2831 196.646 80.8677 227.78 75.9944C234.606 74.9259 241.549 74.066 248.094 72.1232C249.639 71.6645 252.539 69.9191 251.312 69.0095C248.349 66.8142 223.955 64.0224 223.355 63.9601C210.621 62.6397 204.338 62.6754 192.08 62.277C184.557 62.0325 178.879 62.7701 189.164 58.1534C195.971 55.0982 257.159 32.5842 254.681 27.6891C253.613 25.5816 249.211 27.1628 246.485 27.3525C240.912 27.7403 235.422 28.7202 229.892 29.4143C214.951 31.2898 200.026 33.3062 185.041 34.9265C180.399 35.4285 170.176 35.9918 182.225 34.1691C192.36 32.6361 203.17 31.4964 213.299 30.4663C219.678 29.8175 226.07 29.2529 232.456 28.6569C243.56 27.6209 246.053 27.5946 235.222 28.0678C214.119 28.9898 192.464 30.7213 171.365 28.8252C169.203 28.631 163.591 28.1685 165.23 26.9738C170.642 23.0292 192.753 23.7076 197.611 23.5655C203.579 23.391 226.528 23.0504 233.613 24.4071C234.719 24.619 236.392 26.4298 235.373 26.8476C230.32 28.9181 224.568 29.5474 219.031 30.3821C211.25 31.5551 99.8647 43.7969 99.8647 37.1566C99.8647 35.4655 103.137 35.0132 105.094 34.5899C111.598 33.1828 118.279 32.3506 124.955 31.7286C155.912 28.8444 187.235 29.1941 218.227 31.4761C223.662 31.8764 239.77 33.8434 234.317 34.0008C219.042 34.4416 201.242 29.4383 186.952 26.1743C172.607 22.8979 159.596 19.556 145.721 15.2762C141.627 14.0133 130.339 10.4845 134.559 9.55364C140.204 8.30813 164.446 9.56053 166.035 9.6378C176.598 10.1515 207.513 13.455 197.109 15.0658C185.657 16.8387 155.441 16.1067 147.431 15.9074C127.019 15.3995 97.1374 13.8881 76.3331 12.7095C-13.2436 7.63467 87.5047 13.3056 50.7902 10.9422C39.4215 10.2104 73.3519 13.8224 84.4786 15.9074C97.9908 18.4394 109.737 20.8444 122.642 24.8699C124.412 25.422 135.817 28.3075 136.922 32.4439C138.924 39.9407 107.95 47.2675 128.424 50.5794C137.047 51.9742 160.279 53.0121 168.147 53.609C173.354 54.0041 178.616 54.1844 183.734 55.0817C185.737 55.4329 188.722 55.6605 189.265 57.3119C189.742 58.766 186.987 59.6909 185.544 60.5939C183.233 62.0402 180.64 63.1467 178.102 64.2968C175.591 65.4348 172.983 66.4168 170.409 67.4526C168.123 68.3725 161.458 69.6981 163.772 70.5664C168.669 72.4034 174.504 70.3534 179.862 70.1035C194.989 69.3979 205.108 68.9014 220.54 68.5887C239.37 68.2071 257.8 69.4544 276.553 70.0193C280.789 70.1469 322.3 69.7137 322.61 75.237C322.859 79.6507 260.896 81.8434 255.636 82.1798C250.502 82.5081 235.107 83.1134 240.25 83.3159C251.735 83.7682 263.245 83.207 274.743 83.1476C287.238 83.0831 304.535 82.9756 317.582 83.1897C320.96 83.2451 330.896 83.4941 327.639 84.2416C318.326 86.3786 306.695 84.9124 297.168 85.1673C294.238 85.2457 286.25 84.2743 288.419 85.9247C291.623 88.3622 306.636 89.2252 309.94 89.88C318.521 91.5808 325.611 93.1661 333.974 95.4764C337.519 96.4557 347.797 99.2216 344.081 99.5158C339.363 99.8893 319.733 96.2219 318.89 96.0655C311.122 94.6254 289.192 90.1196 296.866 88.3652C301.48 87.3108 315.526 87.4463 319.091 87.3554C322.056 87.2797 336.904 87.5786 340.913 84.9149C343.923 82.9149 341.593 75.3062 341.918 73.638C343.726 64.3595 353.264 60.9678 362.835 58.5321C366.32 57.6453 371.397 58.8646 373.445 56.3441C374.922 54.5257 369.052 53.8676 366.606 53.062C361.39 51.3434 338.497 48.3234 350.466 41.8273C361.265 35.9667 381.135 30.1799 346.142 42.0797C299.251 58.0258 252.858 74.8796 206.159 91.1844C202.387 92.5016 194.536 93.7633 204.802 92.573C213.318 91.5855 225.773 90.165 233.764 89.2909C237.074 88.9289 275.816 84.3781 235.725 90.3008C200.963 95.4362 165.967 100.919 130.838 104.018C128.802 104.198 124.414 105.967 124.704 104.271C124.794 103.742 125.875 103.846 126.463 103.639C133.994 100.999 133.887 101.145 143.107 97.5382C149.094 95.196 184.77 84.1518 170.51 74.3954C164.045 69.9721 151.467 67.7415 144.062 66.2744C139.686 65.4075 135.252 64.7633 130.838 64.0443C128.363 63.6411 125.862 63.3503 123.396 62.9082C122.572 62.7604 121.071 62.9785 120.983 62.277C120.797 60.8013 152.741 51.408 152.006 50.6636C150.821 49.4631 148.282 50.4796 146.425 50.5794C141.753 50.8307 137.107 51.3403 132.447 51.7155C121.651 52.5848 110.865 53.2029 100.066 53.9456" stroke="#B6D9CF" stroke-width="9" stroke-linecap="round"/>
</svg>
