<svg width="355" height="78" viewBox="0 0 355 78" fill="none" xmlns="http://www.w3.org/2000/svg">
<path d="M96 11C96 13.0266 96.9453 14.9697 96.9453 17.0019C96.9453 18.5012 97.1698 20.036 96.709 21.522C96.4556 22.3391 96 23.1733 96 24" stroke="#588B8B" stroke-linecap="round"/>
<path d="M102 10C102 11.3148 100.838 12.5763 100.5 13.881C100.059 15.5808 100 17.2364 100 18.9524C100 19.6422 101.091 21.708 102 22" stroke="#588B8B" stroke-linecap="round"/>
<path d="M94 16C96.9815 16 100.921 15.4243 103.53 14.4444C105.308 13.7766 107.134 12.4044 109 12" stroke="#588B8B" stroke-linecap="round"/>
<path d="M93 19C97.2998 18.8296 101.644 18 106 18" stroke="#588B8B" stroke-linecap="round"/>
<path d="M115.182 11.0346C113.715 11.0346 112.248 10.7633 111.565 11.7397C111.034 12.4985 111.483 13.943 111.483 14.7427C111.483 16.2284 117.991 14.2134 118.531 16.1005C119.046 17.901 119.888 20.2106 116.271 20.6703C115.664 20.7474 111.371 21.3027 111.134 20.7748C110.841 20.1248 111.06 19.0923 111.483 18.5552" stroke="#588B8B" stroke-linecap="round"/>
<path d="M119 13.2746C119 14.3821 120.848 15.6666 122.273 16.459C123.956 17.3951 124.368 18.8258 125.545 19.9719C125.842 20.2604 125.955 18.2351 125.955 18.0385C125.955 17.0715 126.213 16.2365 126.341 15.3091C126.459 14.4537 126.614 11.3853 128 11" stroke="#588B8B" stroke-linecap="round"/>
<path d="M130 11.8438C130 13.8478 131.994 15.3741 132.701 17.2599C132.94 17.8991 133.166 18.3098 133.694 18.8732C134.217 19.4311 133.551 17.9828 133.306 17.7209C131.345 15.629 131.095 10 137 10" stroke="#588B8B" stroke-linecap="round"/>
<path d="M140 9.8994C140 9.0939 141.289 8.22414 142.724 8.04674C144.639 7.8099 145.581 8.50936 146.519 9.32935C147.686 10.3501 148.13 11.6212 148.987 12.7108C149.364 13.1898 149.42 13.716 149.965 14.1489C150.343 14.4492 147.559 13.4983 147.357 13.4233C143.717 12.073 142.095 14.6269 142.095 16.4291C142.095 18.3514 148.757 14.8455 149.22 14.3302" stroke="#588B8B" stroke-linecap="round"/>
<path d="M151.198 10.2687C154.049 10.2687 157.27 10.2131 157.066 8.34682C157.002 7.76073 155.658 7.43125 154.877 7.11303C153.669 6.6203 152.773 7.87627 152.456 8.24005C151.359 9.49691 150.605 11.096 151.222 12.5109C151.75 13.7221 158.907 12.3482 160 11.977" stroke="#588B8B" stroke-linecap="round"/>
<path d="M164.095 5C162.989 5.72826 162 6.7657 162 7.72922C162 8.61828 163.226 9.3093 164.881 9.3093C165.802 9.3093 165.967 8.53115 166.088 8.14419C166.245 7.64363 166.448 7.43882 165.928 6.99505C165.435 6.57403 165.566 6.1361 165.274 5.69428C165.038 5.33841 164.881 5.81928 164.881 5.93368C164.881 7.48607 167.089 8.72907 168.838 9.832C169.757 10.4118 169.9 10.4809 170.147 10.5781C171.414 11.0758 173.162 11.7304 173.785 12.5572C174.318 13.2651 173.862 14.641 172.41 14.9473C172.046 15.0241 171.378 15.0165 171.035 14.9273C170.819 14.8711 170.774 14.7904 170.613 14.7119C170.484 14.6489 170.511 14.8846 170.511 14.7677" stroke="#588B8B" stroke-linecap="round"/>
<path d="M163 1C163.677 1.02929 164.44 1.37212 164.942 1.59682C165.849 2.0024 166.661 2.58451 167.235 3.12762C167.697 3.56453 168.276 3.96433 168.782 4.38714C169.269 4.79472 169.58 5.24186 170.126 5.63503C170.671 6.02804 171.46 6.31143 172.008 6.70465C172.054 6.7376 172.71 7.01698 172.247 6.99919C171.476 6.96953 170.375 6.16685 169.857 5.88306C169.205 5.52554 169.004 5.04802 168.513 4.64292C167.525 3.82939 170.085 3.14639 171.127 2.88347C172.109 2.6355 173.197 2.45807 174.272 2.70907C174.601 2.78588 174.98 2.89074 175.235 3.02298C175.28 3.04642 175.556 3.18352 175.37 3.09274C175.342 3.07908 175.025 2.97942 175.056 2.96873C175.892 2.67944 177.111 3.50796 177.581 3.75156C177.977 3.95719 178.758 4.23628 179 4.4879" stroke="#588B8B" stroke-linecap="round"/>
<path d="M88.9552 20C88.1837 20.0441 87.4552 20.3891 86.8464 20.6375C86.1814 20.9087 85.6756 21.3058 85.262 21.7063C83.9276 22.9982 83.1349 24.4889 83.187 25.9914C83.2115 26.6985 83.743 27.2338 84.2245 27.8651C84.6461 28.4179 84.937 28.9811 85.2 29.565C85.5451 30.3314 85.9993 31.0518 86.6829 31.7446C86.9168 31.9816 87.0439 32.0269 86.6716 31.9088C86.4933 31.8522 86.5194 31.8418 86.5194 31.9764C86.5194 32.8814 86.4114 33.8187 86.6885 34.7129C86.9753 35.6385 88.0711 36.3802 88.8988 37.1661C89.3863 37.629 89.9491 38.0625 90.4551 38.5183C90.4929 38.5524 91.033 38.9666 90.9625 38.9948C90.7771 39.0689 89.4165 38.3294 89.2597 38.2672C87.9578 37.751 86.6059 37.2757 85.3015 36.7605C84.483 36.4372 83.607 36.1777 82.7867 35.8655C82.6613 35.8177 82.2149 35.5755 82.0199 35.6498C81.9133 35.6903 82.2645 35.6972 82.392 35.7045C82.8645 35.7315 83.325 35.7677 83.7903 35.8236C85.4297 36.0207 87.4582 36.2524 88.7409 36.9182C88.9939 37.0495 89.1524 37.2275 89.4119 37.3529C89.6062 37.4467 89.8546 37.5001 90.0152 37.6169C90.2278 37.7713 90.4969 38.0285 90.5735 38.2253C90.598 38.2884 90.5791 38.3638 90.5791 38.4282C90.5791 38.7072 90.6077 37.8686 90.5565 37.5911C90.471 37.1271 90.2746 36.7068 90.2746 36.2389C90.2746 35.1904 91.0807 34.3772 92 33.5024" stroke="#588B8B" stroke-linecap="round"/>
<path d="M278.136 36.4917C245.702 36.4917 213.258 36.3819 180.826 36.4917C139.389 36.6321 99.6206 39.919 60.0236 45.1816C42.1042 47.5632 22.7917 50.8644 9.08137 56.6268C4.45534 58.5711 0.536931 61.1457 1.04436 64.045C1.82441 68.5021 24.6286 68.1792 31.0904 68.443C71.7979 70.1044 112.668 70.9224 153.377 72.6289C189.316 74.1356 225.087 75.9432 261.196 76.55C289.626 77.0278 318.87 78.1063 345.77 73.3178C350.343 72.5037 354.88 71.7466 352.2 69.1848C347.596 64.7839 332.172 62.0144 322.896 60.177C289.992 53.6599 255.261 48.3806 220.146 44.5458C193.598 41.6467 166.586 39.8641 140.27 36.5447C134.022 35.7566 127.997 35.0154 122.341 33.6304" stroke="#588B8B" stroke-width="2" stroke-linecap="round"/>
</svg>
