<svg width="732" height="508" viewBox="0 0 732 508" fill="none" xmlns="http://www.w3.org/2000/svg">
<path d="M5.90889 23.4034C4.53512 94.9836 5.90889 166.244 5.90889 237.801C5.90889 267.125 7.36335 296.481 7.36335 325.73C7.36335 349.461 11.8192 369.267 17.2212 392.122C19.9403 403.626 18.9989 415.926 18.9989 427.828C18.9989 440.678 15.6211 452.971 14.6356 465.315C14.0463 472.696 7.11621 479.105 5.82806 486.204C4.98327 490.86 2.99997 492.81 2.99997 497.782C2.99997 508.072 14.8887 504.341 22.8774 504.341C167.567 504.341 313.237 501.426 458.404 501.426C466.279 501.426 473.464 498.511 481.19 498.511C504.677 498.511 528.163 498.511 551.65 498.511C575.714 498.511 599.297 501.426 623.403 501.426C638.89 501.426 654.377 501.426 669.864 501.426C683.574 501.426 697.283 501.426 710.993 501.426C716.919 501.426 722.951 503.544 722.951 496.406C722.951 483.977 721.497 471.605 721.497 459.162C721.497 447.282 722.951 434.405 722.951 422.079C722.951 412.785 721.497 403.331 721.497 393.903C721.497 382.275 725.511 371.29 725.86 359.736C726.564 336.459 724.406 312.847 724.406 289.457C724.406 257.651 722.951 225.818 722.951 193.918C722.951 158.381 725.86 122.775 725.86 87.2855C725.86 64.9374 730.007 42.8172 728.769 20.4886C728.365 13.1916 719.116 10.2869 713.498 10.2869C698.514 10.2869 679.175 7.47859 665.582 13.9304C653.081 19.8638 634.293 17.5739 620.655 17.5739C591.459 17.5739 562.262 17.5739 533.065 17.5739C508.611 17.5739 484.693 17.7988 460.424 19.76C418.7 23.1316 378.046 27.7756 335.988 27.7756C300.949 27.7756 267.622 29.0955 233.449 21.946C217.426 18.5938 236.648 17.5739 242.499 17.5739C253.787 17.5739 265.979 17.1313 277.163 15.3068C325.152 7.479 373.171 3.00002 421.881 3.00002C449.397 3.00002 367.027 7.56715 339.543 8.91052C309.156 10.3958 278.928 15.7729 248.478 17.5739C223.013 19.08 197.638 19.4015 172.201 21.2983C155.892 22.5144 139.257 23.3211 122.911 23.4034C98.941 23.5241 74.9671 23.4034 50.9967 23.4034C43.8739 23.4034 36.8365 23.7107 29.8265 22.2699C25.81 21.4443 21.088 21.7605 18.9989 17.5739" stroke="black" stroke-width="5" stroke-linecap="round"/>
</svg>
