<svg viewBox="0 30 567 260" fill="none" xmlns="http://www.w3.org/2000/svg">
<path d="M6.25529 160.037C14.8742 182.155 32.1767 199.063 45.9952 218.512C51.2127 225.855 59.4907 232.149 66.9143 237.687C71.5649 241.157 76.7584 248.463 78.517 253.652C80.3124 258.949 85.4183 264.813 88.5107 269.692C89.4564 271.185 92.1245 275.612 93.4857 276.496C95.4213 277.752 98.471 283.42 93.4742 276.675C85.5703 266.006 77.6168 254.937 68.9654 244.753C62.1152 236.689 54.8475 228.985 48.7806 220.402C43.0392 212.28 35.4777 205.708 32.5833 196.398C30.7962 190.65 28.3945 185.256 25.8362 179.757C25.457 178.941 20.9138 167.754 22.7868 172.627C27.5504 185.02 32.5219 195.633 40.3396 206.712C47.967 217.522 53.5701 229.377 61.2388 240.203C65.865 246.734 70.4456 253.561 74.6837 260.248C76.1074 262.494 77.0511 266.287 80.0291 267.525C84.8671 269.537 93.5753 266.432 98.6656 266.115C106.173 265.646 113.795 264.882 121.313 264.692C129.056 264.497 137.201 262.672 144.956 261.803C154.065 260.784 162.903 260.137 172.071 259.498C182.022 258.805 192.385 255.084 201.894 252.505C214.531 249.078 227.537 246.992 240.117 243.488C259.831 237.995 279.918 232.813 300.193 229.034C332.411 223.03 363.205 212.77 395.031 205.611C405.998 203.143 417.129 201.928 428.182 199.868C439.046 197.843 449.662 195.09 460.63 193.359C483.11 189.811 507.465 186.282 528.871 178.982C533.972 177.242 538.925 173.846 544.349 172.911C545.471 172.717 546.03 172.554 546.829 171.765C547.514 171.088 549.131 171.716 548.633 170.215C547.27 166.108 544.699 162.006 543.109 157.929C535.447 138.28 528.181 118.733 519.508 99.4582C511.723 82.1559 501.914 65.8395 494.938 48.2631C492.956 43.2711 490.949 37.5098 488.116 32.7869C486.734 30.4831 487.582 31.7329 488.046 33.863C494.057 61.4516 504.614 88.1836 511.046 115.661C513.988 128.228 515.364 139.258 522.934 150.552C527.501 157.366 531.776 165.065 535.364 172.332C538.155 177.984 532.965 162.817 532.799 162.352C527.156 146.478 517.583 131.818 513.154 115.616C510.654 106.469 506.951 95.8541 507.222 86.3312C507.261 84.9417 507.313 83.4966 507.493 82.1168C507.765 80.0344 513.384 91.3767 513.455 91.5048C524.15 110.831 538.439 128.341 551.573 146.364C554.262 150.054 557.633 154.229 558.445 158.737C558.863 161.057 555.466 158.666 554.865 158.281C536.683 146.646 523.625 133.049 513.069 115.386C506.323 104.097 500.72 91.9713 496.621 79.7056C494.996 74.8411 496.641 68.5174 496.96 63.5652C497.034 62.4064 498.689 52.8162 497.182 52.3245C495.935 51.9173 492.883 52.9994 492.116 53.1686C477.746 56.3378 463.413 59.5514 449.169 63.1428C404.016 74.528 361.86 93.589 316.505 104.209C300.891 107.865 284.933 110.53 269.1 113.356C258.497 115.248 248.333 118.326 237.654 119.884C206.423 124.44 175.474 129.068 144.628 135.411C126.211 139.197 108.433 142.34 89.5949 143.931C80.8095 144.673 71.8652 144.639 63.1283 145.512C52.0753 146.617 41.9723 147.181 31.2068 150.074C20.799 152.871 10.3853 155.483 -0.168172 157.822C-3.96087 158.663 -9.14031 159.21 -12.5663 161.21C-14.1518 162.136 -8.72709 161.607 -6.8586 161.308C1.99432 159.89 10.8464 158.097 19.5837 156.213C43.4915 151.058 67.1015 144.88 91.0202 139.701C108.625 135.889 125.754 130.683 143.695 128.102C174.667 123.647 205.944 120.918 236.884 116.277C251.426 114.096 265.701 111.682 279.779 107.876C295.641 103.587 311.778 99.3397 327.994 96.2601C350.524 91.9813 373.938 92.353 396.619 89.1557C403.189 88.2295 409.283 85.7555 415.38 83.4762C427.716 78.8642 440.35 75.0523 452.924 70.9931C458.376 69.2331 464.502 66.1592 470.196 65.0826C471.784 64.7824 471.983 65.7042 472.976 67.0624C484.045 82.199 497.562 96.041 511.046 109.448C516.225 114.598 522.855 120.175 526.079 126.623C527.613 129.692 529.453 131.217 531.935 133.754C535.251 137.142 536.511 142.195 539.059 146.098C543.264 152.538 545.561 159.338 549.31 165.937C549.855 166.896 554.486 174.199 553.647 174.86C553.111 175.282 551.536 174.871 550.94 174.866C548.029 174.838 545.254 175.612 542.521 176.394C527.921 180.575 512.717 182.746 498.122 187.13C489.093 189.842 480.381 193.867 471.179 196.11C464.939 197.63 459.336 198.898 453.404 201.267C445.095 204.587 435.58 205.065 426.774 206.935C415.394 209.353 404.202 212.516 392.866 215.105C360.304 222.542 327.817 231.946 294.467 236.229C268.259 239.595 242.285 242.901 215.979 245.489C197.609 247.297 179.483 248.712 161.181 251.143C137.245 254.323 112.703 253.393 88.944 257.52C79.9537 259.082 70.9992 261.187 62.3268 263.774C60.2131 264.404 62.1865 264.829 63.3028 264.962C69.0954 265.653 75.3164 263.785 80.8815 262.853C103.268 259.106 126.969 257.939 149.782 257.702C151.313 257.686 153.673 256.947 151.174 257.882C140.612 261.831 130.446 266.388 119.539 269.665C115.293 270.941 110.344 273.254 105.719 272.557C101.167 271.87 97.2267 271.298 93.8146 268.278C76.0215 252.53 68.5382 229.739 60.6331 209.145C53.6573 190.972 51.5198 171.661 43.8062 153.677C43.1992 152.262 39.8623 142.843 37.5965 142.697C33.6256 142.441 41.0886 178.971 41.6958 181.769C41.883 182.631 42.4616 187.131 42.3909 186.541C41.2943 177.38 30.4845 167.922 24.9701 160.522C22.8773 157.714 19.3428 152.95 19.5821 149.235C19.6434 148.285 19.7684 151.199 20.3044 152.028" stroke="#FF8B5C" stroke-width="3" stroke-linecap="round"/>
<path d="M157.28 152.782C155.234 152.71 150.504 151.803 148.609 153.054C144.065 156.053 141.401 163.936 140.123 168.52C135.973 183.403 134.92 203.78 143.998 217.81C149.964 227.031 160.504 226.285 170.122 223.828C172.268 223.28 180.161 222.489 181.034 219.948C182.843 214.68 182.376 208.207 182.888 202.775C183.819 192.908 190.343 162.94 173.783 158.647C171.131 157.959 166.525 156.068 164.993 154.091M211.577 184.82C213.531 191.252 216.491 199.981 215.208 206.542C215.051 207.346 214.519 209.53 215.412 207.158C217.186 202.447 218.785 197.757 221.256 193.278C224.325 187.714 229.46 181.274 235.58 178.142C241.824 174.946 242.356 175.476 244.266 180.963C247.886 191.359 250.928 182.432 254.509 176.282C255.53 174.529 263.211 156.445 266.345 158.927C272.105 163.49 276.355 170.214 279.777 176.264C281.725 179.707 282.547 181.993 286.716 180.928M337.291 150.52C338.672 159.48 341.445 168.414 343.785 177.22C346.331 186.802 343.257 169.483 343.288 167.388C343.435 157.454 342.726 146.176 348.5 137.577C350.153 135.116 353.432 147.465 354.014 148.92C354.153 149.268 360.012 165.13 361.18 159.963C361.984 156.413 363.062 153.354 364.771 150.059C366.339 147.034 367.786 140.875 370.289 138.448C371.454 137.317 385.599 161.573 387.49 151.907M388.854 134.07C390.095 135.914 397.869 147.791 397.222 148.328M381.49 122.835C381.51 122.57 381.527 122.32 381.541 122.082M381.541 122.082C381.983 114.483 379.258 120.564 381.541 122.082ZM381.541 122.082C382.021 122.402 382.725 122.519 383.726 122.263M415.711 116.279C408.26 115.781 408.985 117.669 407.403 123.745C405.782 129.97 401.279 138.591 402.444 145.172C402.845 147.441 410.187 146.067 411.152 145.012C414.404 141.461 421.498 135.059 424.203 128.894M424.203 128.894C425.233 126.546 425.627 124.232 424.927 122.123C424.855 121.903 423.509 118.781 423.371 120.274C423.128 122.902 423.515 125.853 424.203 128.894ZM424.203 128.894C425.539 134.803 428.007 141.051 429.183 145.933C431.038 153.632 432.333 161.898 436.84 168.806M436.84 168.806C437.126 169.244 437.424 169.676 437.736 170.102C438.803 171.558 440.144 172.971 438.272 174.155C437.049 174.929 431.719 178.726 432.404 177.597C434.155 174.71 435.602 171.777 436.84 168.806ZM436.84 168.806C441.268 158.188 443.03 147.09 446.47 135.869C447.933 131.097 447.791 121.97 452.939 118.793" stroke="black" stroke-width="4" stroke-linecap="round"/>
</svg>
