<svg width="43" height="41" viewBox="0 0 43 41" fill="none" xmlns="http://www.w3.org/2000/svg">
<path d="M15.0478 9.44873C15.0478 12.3828 15.946 15.0363 16.2609 17.9231C16.6267 21.2759 16.8931 24.5312 16.8931 27.9009C16.8931 28.1273 16.7052 29.6074 17.0297 28.9944M11.9705 1.91512C8.99177 2.03923 5.94348 3.19239 3.80368 5.33219C1.25586 7.88001 1.34188 12.2437 1.58258 15.5834C1.9405 20.5496 3.23362 24.3795 5.61472 28.6366C7.20935 31.4876 9.35355 32.9222 11.5946 35.1632C13.5314 37.1001 15.9796 38.9416 18.7021 39.5541C22.9202 40.5032 26.861 36.5899 29.9784 34.4627C32.7813 32.5502 36.1246 31.6238 39.0849 30.0034C40.3722 29.2988 41.3563 28.3992 41.4085 26.8597C41.5258 23.3997 40.2204 20.0403 41.6477 16.6598C42.4722 14.7072 41.7422 14.0882 40.5713 12.1322C39.5032 10.3478 38.0718 8.00417 36.1975 6.90404C35.8041 6.67311 35.3642 6.58421 34.9161 6.54525C33.6448 6.4347 32.4816 5.16344 31.5161 4.47792C28.7327 2.50173 26.5837 1.24633 23.2468 2.0518C20.9776 2.59954 18.9325 1.64014 16.686 1.60759C14.7944 1.58017 12.9624 1.30005 11.0479 1.30005M28.0479 9.44873C28.0479 12.1322 28.946 15.0363 27.2609 17.9231C27.6267 21.2759 27.8931 24.5312 27.8931 27.9009C27.8931 28.1273 27.7052 29.6074 28.0298 28.9944" stroke="#FFFFFF" stroke-width="2" stroke-linecap="round"/>
</svg>
