<svg width="303" height="177" viewBox="0 0 303 177" fill="none" xmlns="http://www.w3.org/2000/svg">
<path d="M3.19802 167.969C2.63224 143.301 3.19802 118.743 3.19802 94.0825C3.19802 83.9768 3.79704 73.8601 3.79704 63.7803C3.79704 55.602 5.63217 48.7764 7.85697 40.9002C8.97681 36.9358 8.5891 32.6969 8.5891 28.5952C8.5891 24.1667 7.19797 19.9304 6.79207 15.6763C6.54937 13.1327 3.69525 10.9239 3.16474 8.47741C2.81681 6.87294 2 6.20078 2 4.48734C2 0.941366 6.89634 2.22723 10.1864 2.22723C69.7764 2.22723 129.77 3.23173 189.556 3.23173C192.799 3.23173 195.759 4.23622 198.941 4.23622C208.613 4.23622 218.286 4.23622 227.959 4.23622C237.87 4.23622 247.582 3.23173 257.51 3.23173C263.888 3.23173 270.267 3.23173 276.645 3.23173C282.291 3.23173 287.938 3.23173 293.584 3.23173C296.024 3.23173 298.509 2.50187 298.509 4.96169C298.509 9.24494 297.91 13.5086 297.91 17.7969C297.91 21.891 298.509 26.3286 298.509 30.5763C298.509 33.7791 297.91 37.0372 297.91 40.2864C297.91 44.2938 299.563 48.0793 299.707 52.0612C299.997 60.083 299.108 68.2202 299.108 76.2807C299.108 87.2419 298.509 98.2121 298.509 109.206C298.509 121.452 299.707 133.723 299.707 145.953C299.707 153.655 301.415 161.278 300.905 168.973C300.738 171.488 296.929 172.489 294.615 172.489C288.444 172.489 280.48 173.457 274.881 171.233C269.733 169.188 261.995 169.978 256.379 169.978C244.354 169.978 232.33 169.978 220.305 169.978C210.234 169.978 200.383 169.9 190.388 169.224C173.204 168.062 156.461 166.462 139.14 166.462C124.709 166.462 110.984 166.007 96.9095 168.471C90.3105 169.626 98.2268 169.978 100.637 169.978C105.286 169.978 110.307 170.13 114.913 170.759C134.677 173.456 154.453 175 174.514 175C185.847 175 151.923 173.426 140.604 172.963C128.089 172.451 115.64 170.598 103.099 169.978C92.6116 169.458 82.1607 169.348 71.6846 168.694C64.9679 168.275 58.117 167.997 51.3849 167.969C41.5129 167.927 31.6393 167.969 21.7673 167.969C18.8338 167.969 15.9354 167.863 13.0484 168.359C11.3942 168.644 9.44949 168.535 8.5891 169.978" stroke="white" stroke-width="3" stroke-linecap="round"/>
</svg>
