<svg width="42" height="41" viewBox="0 0 42 41" fill="none" xmlns="http://www.w3.org/2000/svg">
<path d="M10.0477 12.4487C10.0477 15.3828 10.9459 18.0363 11.2608 20.9231C11.6266 24.2759 11.8929 27.5312 11.8929 30.9009C11.8929 31.1273 11.7051 32.6074 12.0296 31.9944C12.8874 30.374 14.0208 28.9576 15.3954 27.7401C17.7186 25.6825 20.8106 24.1432 23.3401 22.2899C26.0556 20.3003 28.968 18.5832 31.114 15.9854C32.2938 14.5572 29.6773 15.1639 28.8587 15.1995C26.6793 15.2942 24.5198 15.1367 22.3492 14.9774C19.2736 14.7516 15.0566 15.5417 12.3542 13.6618C11.358 12.9687 9.01007 11.296 8.51005 10.296M10.9704 1.91512C7.99165 2.03923 4.94336 3.19239 2.80356 5.33219C0.255734 7.88001 0.341759 12.2437 0.582459 15.5834C0.940381 20.5496 2.23349 24.3795 4.6146 28.6366C6.20923 31.4876 8.35343 32.9222 10.5945 35.1632C12.5313 37.1001 14.9794 38.9416 17.702 39.5541C21.9201 40.5032 25.8609 36.5899 28.9783 34.4627C31.7812 32.5502 35.1245 31.6238 38.0848 30.0034C39.3721 29.2988 40.3562 28.3992 40.4084 26.8597C40.5257 23.3997 39.2202 20.0403 40.6476 16.6598C41.472 14.7072 40.7421 14.0882 39.5712 12.1322C38.5031 10.3478 37.0717 8.00417 35.1974 6.90404C34.8039 6.67311 34.364 6.58421 33.916 6.54525C32.6447 6.4347 31.4815 5.16344 30.516 4.47792C27.7326 2.50173 25.5836 1.24633 22.2467 2.0518C19.9775 2.59954 17.9323 1.64014 15.6859 1.60759C13.7943 1.58017 11.9622 1.30005 10.0477 1.30005" stroke="#FFFFFF" stroke-width="2" stroke-linecap="round"/>
</svg>
